# MagicaVoxel @ Ephtracy

# group
g beastmaster64_tree

# material
mtllib beastmaster64_tree.mtl
usemtl palette

# normals
vn -1 0 0
vn 1 0 0
vn 0 0 1
vn 0 0 -1
vn 0 -1 0
vn 0 1 0

# texcoords
vt 0.0332031 0.5
vt 0.228516 0.5
vt 0.306641 0.5
vt 0.369141 0.5
vt 0.533203 0.5
vt 0.537109 0.5
vt 0.900391 0.5
vt 0.916016 0.5
vt 0.958984 0.5
vt 0.978516 0.5

# verts
v -19 16 -2
v -19 16 -6
v -19 20 -2
v -19 20 -6
v -15 52 11
v -15 52 -12
v -15 66 11
v -15 66 -12
v -10 0 7
v -10 0 -7
v -10 2 -1
v -10 2 -2
v -10 6 -1
v -10 6 -2
v -10 10 3
v -10 10 -1
v -10 16 -2
v -10 16 -6
v -10 20 -2
v -10 20 -6
v -10 25 3
v -10 25 -1
v -10 30 -2
v -10 30 -5
v -10 36 6
v -10 36 4
v -10 45 6
v -10 45 4
v -10 45 -2
v -10 45 -5
v -10 52 7
v -10 52 -7
v -6 27 2
v -6 27 -2
v -6 28 -2
v -6 28 -3
v -6 43 6
v -6 43 2
v -6 43 -2
v -6 43 -3
v -6 45 6
v -6 45 2
v -6 45 -2
v -5 27 6
v -5 27 2
v -5 27 -2
v -5 27 -3
v -5 28 6
v -5 28 2
v -5 28 -2
v -5 28 -3
v -5 33 6
v -5 33 4
v -5 39 4
v -5 39 2
v -5 43 6
v -5 43 2
v -5 43 -2
v -5 43 -3
v -5 45 6
v -5 45 2
v -5 45 -2
v -5 46 -2
v -5 46 -3
v -5 47 6
v -5 47 2
v -5 47 -2
v -4 27 -3
v -4 27 -6
v -4 28 -3
v -4 28 -6
v -4 43 9
v -4 43 7
v -4 45 9
v -4 45 7
v -3 28 -3
v -3 28 -5
v -3 31 -3
v -3 31 -5
v -1 6 12
v -1 6 7
v -1 10 12
v -1 10 7
v -1 36 7
v -1 36 6
v -1 37 7
v -1 37 6
v 0 12 -7
v 0 12 -12
v 0 18 -7
v 0 18 -12
v 0 37 7
v 0 37 6
v 0 42 7
v 0 42 6
v 7 28 7
v 7 28 6
v 7 33 6
v 7 43 7
v 7 43 6
v 11 27 6
v 11 27 5
v 11 27 2
v 11 27 -0
v 11 27 -4
v 11 27 -6
v 11 30 5
v 11 30 2
v 11 35 6
v 11 44 -0
v 11 44 -4
v 11 52 6
v 11 52 -6
v -9 27 6
v -9 27 -6
v -9 30 -2
v -9 30 -5
v -9 36 6
v -9 36 4
v -9 45 6
v -9 45 4
v -9 45 -2
v -9 45 -5
v -9 52 6
v -9 52 -6
v -5 28 7
v -5 28 6
v -5 33 6
v -5 43 7
v -5 43 6
v 2 37 7
v 2 37 6
v 2 42 7
v 2 42 6
v 3 6 12
v 3 6 7
v 3 9 7
v 3 10 12
v 3 10 7
v 3 36 7
v 3 36 6
v 3 37 7
v 3 37 6
v 5 12 -7
v 5 12 -12
v 5 17 -7
v 5 18 -7
v 5 18 -12
v 6 28 -3
v 6 28 -5
v 6 31 -3
v 6 31 -5
v 6 43 9
v 6 43 7
v 6 45 9
v 6 45 7
v 7 27 6
v 7 27 2
v 7 27 -3
v 7 27 -6
v 7 28 6
v 7 28 2
v 7 28 -3
v 7 28 -6
v 7 33 6
v 7 33 4
v 7 39 4
v 7 39 2
v 7 43 6
v 7 43 2
v 7 43 -2
v 7 43 -3
v 7 45 6
v 7 45 2
v 7 45 -2
v 7 46 -2
v 7 46 -3
v 7 47 6
v 7 47 2
v 7 47 -2
v 8 27 2
v 8 27 -3
v 8 43 6
v 8 43 2
v 8 43 -2
v 8 43 -3
v 8 44 6
v 8 45 6
v 8 45 2
v 8 45 -2
v 11 0 -6
v 11 0 -7
v 11 3 -6
v 11 16 -6
v 11 52 -6
v 11 52 -7
v 12 0 7
v 12 0 -6
v 12 3 -2
v 12 3 -6
v 12 5 7
v 12 5 6
v 12 10 7
v 12 10 6
v 12 16 -2
v 12 16 -6
v 12 22 5
v 12 22 2
v 12 27 7
v 12 27 6
v 12 27 -0
v 12 27 -4
v 12 30 5
v 12 30 2
v 12 35 7
v 12 35 6
v 12 42 5
v 12 42 2
v 12 44 -0
v 12 44 -4
v 12 46 5
v 12 46 2
v 12 52 7
v 12 52 -6
v 13 42 5
v 13 42 2
v 13 43 5
v 13 43 2
v 17 52 11
v 17 52 -12
v 17 66 11
v 17 66 -12
v 19 43 5
v 19 43 2
v 19 46 5
v 19 46 2
v -1 6 12
v -1 10 12
v 3 6 12
v 3 10 12
v -15 52 11
v -15 66 11
v 17 52 11
v 17 66 11
v -4 43 9
v -4 45 9
v 6 43 9
v 6 45 9
v -10 0 7
v -10 52 7
v -8 10 7
v -8 24 7
v -6 27 7
v -6 45 7
v -5 10 7
v -5 24 7
v -5 28 7
v -5 43 7
v -5 45 7
v -4 43 7
v -4 45 7
v -1 6 7
v -1 10 7
v -1 36 7
v -1 37 7
v 0 0 7
v 0 5 7
v 0 37 7
v 0 42 7
v 1 10 7
v 1 21 7
v 2 37 7
v 2 42 7
v 3 0 7
v 3 5 7
v 3 6 7
v 3 9 7
v 3 10 7
v 3 36 7
v 3 37 7
v 6 9 7
v 6 21 7
v 6 43 7
v 6 45 7
v 7 28 7
v 7 43 7
v 7 45 7
v 8 27 7
v 8 28 7
v 8 44 7
v 8 45 7
v 9 28 7
v 9 44 7
v 10 27 7
v 10 35 7
v 11 5 7
v 11 10 7
v 12 0 7
v 12 5 7
v 12 10 7
v 12 27 7
v 12 35 7
v 12 52 7
v -5 28 6
v -5 33 6
v -5 43 6
v -4 41 6
v -4 42 6
v -3 33 6
v -3 35 6
v -3 39 6
v -3 41 6
v -1 32 6
v -1 33 6
v -1 36 6
v -1 37 6
v -1 39 6
v -1 41 6
v -1 42 6
v 0 37 6
v 0 42 6
v 2 37 6
v 2 42 6
v 3 32 6
v 3 33 6
v 3 36 6
v 3 37 6
v 3 39 6
v 3 41 6
v 3 42 6
v 5 33 6
v 5 35 6
v 5 39 6
v 5 41 6
v 6 41 6
v 6 42 6
v 7 28 6
v 7 33 6
v 7 43 6
v 12 42 5
v 12 46 5
v 13 42 5
v 13 43 5
v 19 43 5
v 19 46 5
v -6 27 2
v -6 43 2
v -5 27 2
v -5 28 2
v -5 39 2
v -5 43 2
v 7 27 2
v 7 28 2
v 7 39 2
v 7 43 2
v 8 27 2
v 8 43 2
v -19 16 -2
v -19 20 -2
v -10 16 -2
v -10 20 -2
v -9 27 -6
v -9 52 -6
v -7 37 -6
v -7 47 -6
v -4 27 -6
v -4 28 -6
v -4 37 -6
v -4 47 -6
v 4 28 -6
v 4 39 -6
v 7 27 -6
v 7 28 -6
v 8 27 -6
v 8 39 -6
v 11 27 -6
v 11 52 -6
v -9 27 6
v -9 36 6
v -9 45 6
v -9 52 6
v -6 27 6
v -6 43 6
v -6 45 6
v -5 27 6
v -5 28 6
v -5 33 6
v -5 43 6
v -5 45 6
v -5 47 6
v 7 27 6
v 7 28 6
v 7 33 6
v 7 43 6
v 7 45 6
v 7 47 6
v 8 27 6
v 8 28 6
v 8 43 6
v 8 44 6
v 8 45 6
v 9 28 6
v 9 44 6
v 10 27 6
v 10 35 6
v 11 27 6
v 11 35 6
v 11 52 6
v 12 42 2
v 12 46 2
v 13 42 2
v 13 43 2
v 19 43 2
v 19 46 2
v -6 27 -2
v -6 28 -2
v -6 43 -2
v -6 45 -2
v -5 27 -2
v -5 28 -2
v -5 43 -2
v -5 45 -2
v -5 46 -2
v -5 47 -2
v 7 43 -2
v 7 45 -2
v 7 46 -2
v 7 47 -2
v 8 43 -2
v 8 45 -2
v -6 28 -3
v -6 43 -3
v -5 27 -3
v -5 28 -3
v -5 43 -3
v -5 46 -3
v -4 27 -3
v -4 28 -3
v -3 28 -3
v -3 31 -3
v 6 28 -3
v 6 31 -3
v 7 27 -3
v 7 28 -3
v 7 43 -3
v 7 46 -3
v 8 27 -3
v 8 43 -3
v -3 28 -5
v -3 31 -5
v 6 28 -5
v 6 31 -5
v -19 16 -6
v -19 20 -6
v -10 16 -6
v -10 20 -6
v 11 0 -6
v 11 3 -6
v 11 16 -6
v 11 52 -6
v 12 0 -6
v 12 3 -6
v 12 16 -6
v 12 52 -6
v -10 0 -7
v -10 52 -7
v -7 6 -7
v -7 22 -7
v -7 37 -7
v -7 47 -7
v -4 37 -7
v -4 47 -7
v -2 6 -7
v -2 22 -7
v 0 12 -7
v 0 18 -7
v 4 18 -7
v 4 39 -7
v 5 12 -7
v 5 17 -7
v 5 18 -7
v 7 13 -7
v 7 17 -7
v 8 13 -7
v 8 39 -7
v 11 0 -7
v 11 52 -7
v -15 52 -12
v -15 66 -12
v 0 12 -12
v 0 18 -12
v 5 12 -12
v 5 18 -12
v 17 52 -12
v 17 66 -12
v -10 0 7
v 0 0 7
v 3 0 7
v 12 0 7
v -9 0 6
v 0 0 6
v 3 0 6
v 11 0 6
v -9 0 -6
v 11 0 -6
v 12 0 -6
v -10 0 -7
v 11 0 -7
v -1 6 12
v 3 6 12
v -1 6 7
v 3 6 7
v 0 12 -7
v 5 12 -7
v 0 12 -12
v 5 12 -12
v -19 16 -2
v -10 16 -2
v -19 16 -6
v -10 16 -6
v -6 28 -2
v -5 28 -2
v -6 28 -3
v -5 28 -3
v -1 36 7
v 3 36 7
v -1 36 6
v 3 36 6
v 12 42 5
v 13 42 5
v 12 42 2
v 13 42 2
v -4 43 9
v 6 43 9
v -5 43 7
v -4 43 7
v 6 43 7
v 7 43 7
v -6 43 6
v -5 43 6
v 7 43 6
v 8 43 6
v 13 43 5
v 19 43 5
v -6 43 2
v -5 43 2
v 7 43 2
v 8 43 2
v 13 43 2
v 19 43 2
v -15 52 11
v 17 52 11
v -10 52 7
v 12 52 7
v -9 52 6
v 11 52 6
v -9 52 -6
v 11 52 -6
v 12 52 -6
v -10 52 -7
v 11 52 -7
v -15 52 -12
v 17 52 -12
v -1 10 12
v 3 10 12
v -1 10 7
v 1 10 7
v 3 10 7
v 0 18 -7
v 4 18 -7
v 5 18 -7
v 0 18 -12
v 5 18 -12
v -19 20 -2
v -10 20 -2
v -19 20 -6
v -10 20 -6
v -9 27 6
v -6 27 6
v -5 27 6
v 7 27 6
v 8 27 6
v 10 27 6
v 11 27 6
v 11 27 5
v -6 27 2
v -5 27 2
v 7 27 2
v 8 27 2
v 11 27 2
v 11 27 -0
v -6 27 -2
v -5 27 -2
v -5 27 -3
v -4 27 -3
v 7 27 -3
v 8 27 -3
v 11 27 -4
v -9 27 -6
v -4 27 -6
v 7 27 -6
v 8 27 -6
v 11 27 -6
v -5 28 7
v 7 28 7
v -5 28 6
v 7 28 6
v -4 28 -3
v -3 28 -3
v 6 28 -3
v 7 28 -3
v -3 28 -5
v 6 28 -5
v -4 28 -6
v 4 28 -6
v 7 28 -6
v -3 31 -3
v 6 31 -3
v -3 31 -5
v 6 31 -5
v -1 37 7
v 0 37 7
v 2 37 7
v 3 37 7
v -1 37 6
v 0 37 6
v 2 37 6
v 3 37 6
v 0 42 7
v 2 42 7
v 0 42 6
v 2 42 6
v -6 43 -2
v -5 43 -2
v 7 43 -2
v 8 43 -2
v -6 43 -3
v -5 43 -3
v 7 43 -3
v 8 43 -3
v -4 45 9
v 6 45 9
v -4 45 7
v 6 45 7
v -6 45 6
v -5 45 6
v 7 45 6
v 8 45 6
v -6 45 2
v -5 45 2
v 7 45 2
v 8 45 2
v -6 45 -2
v -5 45 -2
v 7 45 -2
v 8 45 -2
v 12 46 5
v 19 46 5
v 12 46 2
v 19 46 2
v -5 46 -2
v 7 46 -2
v -5 46 -3
v 7 46 -3
v -5 47 6
v 7 47 6
v -5 47 2
v 7 47 2
v -5 47 -2
v 7 47 -2
v -15 66 11
v 17 66 11
v -15 66 -12
v 17 66 -12

# faces
f 3/6/1 2/6/1 1/6/1
f 4/6/1 2/6/1 3/6/1
f 7/7/1 6/7/1 5/7/1
f 8/7/1 6/7/1 7/7/1
f 11/6/1 10/6/1 9/6/1
f 12/6/1 10/6/1 11/6/1
f 13/6/1 11/6/1 9/6/1
f 13/5/1 12/5/1 11/5/1
f 14/6/1 10/6/1 12/6/1
f 14/5/1 12/5/1 13/5/1
f 15/6/1 13/6/1 9/6/1
f 15/6/1 14/6/1 13/6/1
f 16/6/1 14/6/1 15/6/1
f 17/6/1 10/6/1 14/6/1
f 17/6/1 14/6/1 16/6/1
f 18/6/1 10/6/1 17/6/1
f 19/6/1 17/6/1 16/6/1
f 20/6/1 10/6/1 18/6/1
f 21/5/1 16/5/1 15/5/1
f 21/6/1 15/6/1 9/6/1
f 22/6/1 20/6/1 19/6/1
f 22/5/1 16/5/1 21/5/1
f 22/6/1 19/6/1 16/6/1
f 23/6/1 22/6/1 21/6/1
f 23/6/1 20/6/1 22/6/1
f 24/6/1 20/6/1 23/6/1
f 25/6/1 21/6/1 9/6/1
f 25/6/1 23/6/1 21/6/1
f 26/6/1 23/6/1 25/6/1
f 27/6/1 25/6/1 9/6/1
f 27/5/1 26/5/1 25/5/1
f 28/6/1 23/6/1 26/6/1
f 28/5/1 26/5/1 27/5/1
f 29/5/1 24/5/1 23/5/1
f 29/6/1 23/6/1 28/6/1
f 30/6/1 20/6/1 24/6/1
f 30/5/1 24/5/1 29/5/1
f 31/6/1 29/6/1 28/6/1
f 31/6/1 28/6/1 27/6/1
f 31/6/1 30/6/1 29/6/1
f 31/6/1 27/6/1 9/6/1
f 32/6/1 20/6/1 30/6/1
f 32/6/1 30/6/1 31/6/1
f 32/6/1 10/6/1 20/6/1
f 35/8/1 34/8/1 33/8/1
f 38/8/1 35/8/1 33/8/1
f 38/8/1 36/8/1 35/8/1
f 39/8/1 36/8/1 38/8/1
f 40/8/1 36/8/1 39/8/1
f 41/2/1 38/2/1 37/2/1
f 42/8/1 39/8/1 38/8/1
f 42/2/1 38/2/1 41/2/1
f 43/8/1 39/8/1 42/8/1
f 48/8/1 45/8/1 44/8/1
f 49/8/1 45/8/1 48/8/1
f 50/8/1 47/8/1 46/8/1
f 51/8/1 47/8/1 50/8/1
f 52/4/1 49/4/1 48/4/1
f 53/4/1 49/4/1 52/4/1
f 54/1/1 53/1/1 52/1/1
f 54/4/1 49/4/1 53/4/1
f 55/4/1 49/4/1 54/4/1
f 56/1/1 54/1/1 52/1/1
f 56/1/1 55/1/1 54/1/1
f 57/1/1 55/1/1 56/1/1
f 62/8/1 59/8/1 58/8/1
f 63/8/1 59/8/1 62/8/1
f 63/8/1 62/8/1 61/8/1
f 64/8/1 59/8/1 63/8/1
f 65/2/1 61/2/1 60/2/1
f 66/8/1 63/8/1 61/8/1
f 66/2/1 61/2/1 65/2/1
f 67/8/1 63/8/1 66/8/1
f 70/8/1 69/8/1 68/8/1
f 71/8/1 69/8/1 70/8/1
f 74/2/1 73/2/1 72/2/1
f 75/2/1 73/2/1 74/2/1
f 78/8/1 77/8/1 76/8/1
f 79/8/1 77/8/1 78/8/1
f 82/6/1 81/6/1 80/6/1
f 83/6/1 81/6/1 82/6/1
f 86/1/1 85/1/1 84/1/1
f 87/1/1 85/1/1 86/1/1
f 90/6/1 89/6/1 88/6/1
f 91/6/1 89/6/1 90/6/1
f 94/1/1 93/1/1 92/1/1
f 95/1/1 93/1/1 94/1/1
f 98/5/1 97/5/1 96/5/1
f 99/5/1 98/5/1 96/5/1
f 100/5/1 98/5/1 99/5/1
f 107/6/1 102/6/1 101/6/1
f 107/5/1 103/5/1 102/5/1
f 108/6/1 104/6/1 103/6/1
f 108/5/1 103/5/1 107/5/1
f 109/6/1 107/6/1 101/6/1
f 109/6/1 108/6/1 107/6/1
f 110/5/1 105/5/1 104/5/1
f 110/6/1 108/6/1 109/6/1
f 110/6/1 104/6/1 108/6/1
f 111/6/1 106/6/1 105/6/1
f 111/5/1 105/5/1 110/5/1
f 112/6/1 110/6/1 109/6/1
f 112/6/1 111/6/1 110/6/1
f 113/6/1 106/6/1 111/6/1
f 113/6/1 111/6/1 112/6/1
f 114/6/2 115/6/2 116/6/2
f 116/6/2 115/6/2 117/6/2
f 114/6/2 116/6/2 118/6/2
f 118/6/2 116/6/2 119/6/2
f 118/5/2 119/5/2 120/5/2
f 119/6/2 116/6/2 121/6/2
f 120/5/2 119/5/2 121/5/2
f 116/5/2 117/5/2 122/5/2
f 121/6/2 116/6/2 122/6/2
f 117/6/2 115/6/2 123/6/2
f 122/5/2 117/5/2 123/5/2
f 121/6/2 122/6/2 124/6/2
f 120/6/2 121/6/2 124/6/2
f 122/6/2 123/6/2 124/6/2
f 123/6/2 115/6/2 125/6/2
f 124/6/2 123/6/2 125/6/2
f 126/5/2 127/5/2 128/5/2
f 126/5/2 128/5/2 129/5/2
f 129/5/2 128/5/2 130/5/2
f 131/1/2 132/1/2 133/1/2
f 133/1/2 132/1/2 134/1/2
f 135/6/2 136/6/2 137/6/2
f 135/6/2 137/6/2 138/6/2
f 138/6/2 137/6/2 139/6/2
f 140/1/2 141/1/2 142/1/2
f 142/1/2 141/1/2 143/1/2
f 144/6/2 145/6/2 146/6/2
f 146/6/2 145/6/2 147/6/2
f 147/6/2 145/6/2 148/6/2
f 149/8/2 150/8/2 151/8/2
f 151/8/2 150/8/2 152/8/2
f 153/2/2 154/2/2 155/2/2
f 155/2/2 154/2/2 156/2/2
f 157/8/2 158/8/2 161/8/2
f 161/8/2 158/8/2 162/8/2
f 159/8/2 160/8/2 163/8/2
f 163/8/2 160/8/2 164/8/2
f 161/4/2 162/4/2 165/4/2
f 165/4/2 162/4/2 166/4/2
f 165/1/2 166/1/2 167/1/2
f 166/4/2 162/4/2 167/4/2
f 167/4/2 162/4/2 168/4/2
f 165/1/2 167/1/2 169/1/2
f 167/1/2 168/1/2 169/1/2
f 169/1/2 168/1/2 170/1/2
f 171/8/2 172/8/2 175/8/2
f 175/8/2 172/8/2 176/8/2
f 174/8/2 175/8/2 176/8/2
f 176/8/2 172/8/2 177/8/2
f 173/2/2 174/2/2 178/2/2
f 174/8/2 176/8/2 179/8/2
f 178/2/2 174/2/2 179/2/2
f 179/8/2 176/8/2 180/8/2
f 181/8/2 182/8/2 184/8/2
f 184/8/2 182/8/2 185/8/2
f 185/8/2 182/8/2 186/8/2
f 183/2/2 184/2/2 187/2/2
f 187/2/2 184/2/2 188/2/2
f 184/8/2 185/8/2 189/8/2
f 188/2/2 184/2/2 189/2/2
f 189/8/2 185/8/2 190/8/2
f 191/6/2 192/6/2 193/6/2
f 193/6/2 192/6/2 194/6/2
f 194/6/2 192/6/2 195/6/2
f 195/6/2 192/6/2 196/6/2
f 197/6/2 198/6/2 199/6/2
f 199/6/2 198/6/2 200/6/2
f 197/6/2 199/6/2 201/6/2
f 201/6/2 199/6/2 202/6/2
f 201/5/2 202/5/2 203/5/2
f 202/6/2 199/6/2 204/6/2
f 203/5/2 202/5/2 204/5/2
f 199/5/2 200/5/2 205/5/2
f 204/6/2 199/6/2 205/6/2
f 203/6/2 204/6/2 205/6/2
f 205/5/2 200/5/2 206/5/2
f 203/6/2 205/6/2 207/6/2
f 205/6/2 206/6/2 207/6/2
f 207/6/2 206/6/2 208/6/2
f 203/6/2 207/6/2 209/6/2
f 209/6/2 207/6/2 210/6/2
f 208/6/2 206/6/2 211/6/2
f 211/6/2 206/6/2 212/6/2
f 210/6/2 207/6/2 213/6/2
f 207/5/2 208/5/2 213/5/2
f 208/6/2 211/6/2 214/6/2
f 213/5/2 208/5/2 214/5/2
f 209/5/2 210/5/2 215/5/2
f 210/6/2 213/6/2 216/6/2
f 215/5/2 210/5/2 216/5/2
f 213/6/2 214/6/2 216/6/2
f 215/6/2 216/6/2 217/6/2
f 216/6/2 214/6/2 217/6/2
f 214/6/2 211/6/2 218/6/2
f 217/6/2 214/6/2 218/6/2
f 211/5/2 212/5/2 219/5/2
f 218/6/2 211/6/2 219/6/2
f 212/6/2 206/6/2 220/6/2
f 219/5/2 212/5/2 220/5/2
f 215/6/2 217/6/2 221/6/2
f 218/6/2 219/6/2 222/6/2
f 219/6/2 220/6/2 222/6/2
f 215/6/2 221/6/2 223/6/2
f 221/6/2 222/6/2 223/6/2
f 222/6/2 220/6/2 224/6/2
f 223/6/2 222/6/2 224/6/2
f 220/6/2 206/6/2 224/6/2
f 225/6/2 226/6/2 227/6/2
f 227/6/2 226/6/2 228/6/2
f 229/7/2 230/7/2 231/7/2
f 231/7/2 230/7/2 232/7/2
f 233/6/2 234/6/2 235/6/2
f 235/6/2 234/6/2 236/6/2
f 239/6/3 238/6/3 237/6/3
f 240/6/3 238/6/3 239/6/3
f 243/7/3 242/7/3 241/7/3
f 244/7/3 242/7/3 243/7/3
f 247/2/3 246/2/3 245/2/3
f 248/2/3 246/2/3 247/2/3
f 251/6/3 250/6/3 249/6/3
f 252/6/3 250/6/3 251/6/3
f 253/6/3 250/6/3 252/6/3
f 254/6/3 250/6/3 253/6/3
f 255/6/3 251/6/3 249/6/3
f 255/5/3 252/5/3 251/5/3
f 256/6/3 253/6/3 252/6/3
f 256/5/3 252/5/3 255/5/3
f 257/5/3 254/5/3 253/5/3
f 258/5/3 254/5/3 257/5/3
f 259/6/3 250/6/3 254/6/3
f 259/5/3 254/5/3 258/5/3
f 260/2/3 259/2/3 258/2/3
f 261/6/3 250/6/3 259/6/3
f 261/2/3 259/2/3 260/2/3
f 262/6/3 255/6/3 249/6/3
f 262/6/3 256/6/3 255/6/3
f 263/6/3 256/6/3 262/6/3
f 266/6/3 262/6/3 249/6/3
f 267/6/3 262/6/3 266/6/3
f 268/1/3 265/1/3 264/1/3
f 270/6/3 256/6/3 263/6/3
f 271/6/3 256/6/3 270/6/3
f 272/1/3 269/1/3 268/1/3
f 272/1/3 268/1/3 264/1/3
f 273/1/3 269/1/3 272/1/3
f 274/5/3 267/5/3 266/5/3
f 275/6/3 262/6/3 267/6/3
f 275/5/3 267/5/3 274/5/3
f 276/6/3 262/6/3 275/6/3
f 278/5/3 271/5/3 270/5/3
f 279/1/3 272/1/3 264/1/3
f 280/1/3 272/1/3 279/1/3
f 281/6/3 277/6/3 276/6/3
f 281/5/3 278/5/3 277/5/3
f 281/6/3 275/6/3 274/6/3
f 281/6/3 276/6/3 275/6/3
f 282/6/3 256/6/3 271/6/3
f 282/5/3 278/5/3 281/5/3
f 282/5/3 271/5/3 278/5/3
f 284/6/3 250/6/3 261/6/3
f 285/5/3 257/5/3 253/5/3
f 286/2/3 284/2/3 283/2/3
f 287/6/3 250/6/3 284/6/3
f 287/2/3 284/2/3 286/2/3
f 288/6/3 253/6/3 256/6/3
f 288/5/3 285/5/3 253/5/3
f 288/5/3 287/5/3 286/5/3
f 288/6/3 256/6/3 282/6/3
f 288/5/3 286/5/3 285/5/3
f 288/6/3 282/6/3 281/6/3
f 289/5/3 287/5/3 288/5/3
f 290/5/3 287/5/3 289/5/3
f 291/6/3 250/6/3 287/6/3
f 291/5/3 287/5/3 290/5/3
f 292/5/3 290/5/3 289/5/3
f 292/6/3 289/6/3 288/6/3
f 293/6/3 291/6/3 290/6/3
f 293/5/3 290/5/3 292/5/3
f 294/6/3 288/6/3 281/6/3
f 294/6/3 292/6/3 288/6/3
f 294/6/3 293/6/3 292/6/3
f 295/6/3 293/6/3 294/6/3
f 296/6/3 281/6/3 274/6/3
f 296/6/3 294/6/3 281/6/3
f 297/6/3 294/6/3 296/6/3
f 298/6/3 296/6/3 274/6/3
f 299/5/3 297/5/3 296/5/3
f 299/6/3 296/6/3 298/6/3
f 300/6/3 294/6/3 297/6/3
f 300/5/3 297/5/3 299/5/3
f 301/5/3 295/5/3 294/5/3
f 301/6/3 294/6/3 300/6/3
f 302/6/3 293/6/3 295/6/3
f 302/5/3 295/5/3 301/5/3
f 303/6/3 250/6/3 291/6/3
f 303/6/3 293/6/3 302/6/3
f 303/6/3 291/6/3 293/6/3
f 307/1/3 306/1/3 305/1/3
f 308/1/3 306/1/3 307/1/3
f 309/4/3 305/4/3 304/4/3
f 309/1/3 307/1/3 305/1/3
f 310/1/3 307/1/3 309/1/3
f 311/1/3 307/1/3 310/1/3
f 312/4/3 308/4/3 307/4/3
f 312/1/3 307/1/3 311/1/3
f 313/4/3 309/4/3 304/4/3
f 313/4/3 310/4/3 309/4/3
f 314/4/3 310/4/3 313/4/3
f 315/1/3 311/1/3 310/1/3
f 316/1/3 311/1/3 315/1/3
f 317/9/3 312/9/3 311/9/3
f 317/1/3 311/1/3 316/1/3
f 318/4/3 308/4/3 312/4/3
f 318/9/3 312/9/3 317/9/3
f 319/1/3 306/1/3 308/1/3
f 319/4/3 308/4/3 318/4/3
f 320/1/3 318/1/3 317/1/3
f 320/1/3 317/1/3 316/1/3
f 320/1/3 319/1/3 318/1/3
f 321/1/3 306/1/3 319/1/3
f 321/1/3 319/1/3 320/1/3
f 323/1/3 306/1/3 321/1/3
f 324/8/3 314/8/3 313/8/3
f 324/4/3 313/4/3 304/4/3
f 325/4/3 310/4/3 314/4/3
f 325/8/3 314/8/3 324/8/3
f 326/1/3 315/1/3 310/1/3
f 327/1/3 323/1/3 322/1/3
f 328/1/3 323/1/3 327/1/3
f 329/1/3 323/1/3 328/1/3
f 330/1/3 306/1/3 323/1/3
f 330/1/3 323/1/3 329/1/3
f 331/4/3 310/4/3 325/4/3
f 331/4/3 325/4/3 324/4/3
f 332/1/3 326/1/3 310/1/3
f 332/4/3 310/4/3 331/4/3
f 332/1/3 327/1/3 326/1/3
f 332/1/3 328/1/3 327/1/3
f 333/9/3 329/9/3 328/9/3
f 333/1/3 328/1/3 332/1/3
f 334/4/3 330/4/3 329/4/3
f 334/9/3 329/9/3 333/9/3
f 335/1/3 332/1/3 331/1/3
f 335/4/3 330/4/3 334/4/3
f 335/1/3 334/1/3 333/1/3
f 335/1/3 333/1/3 332/1/3
f 336/1/3 306/1/3 330/1/3
f 336/4/3 330/4/3 335/4/3
f 337/4/3 324/4/3 304/4/3
f 337/4/3 331/4/3 324/4/3
f 338/1/3 335/1/3 331/1/3
f 338/4/3 331/4/3 337/4/3
f 338/1/3 336/1/3 335/1/3
f 339/1/3 306/1/3 336/1/3
f 339/1/3 336/1/3 338/1/3
f 342/6/3 341/6/3 340/6/3
f 343/6/3 341/6/3 342/6/3
f 344/6/3 341/6/3 343/6/3
f 345/6/3 341/6/3 344/6/3
f 348/8/3 347/8/3 346/8/3
f 349/8/3 347/8/3 348/8/3
f 350/8/3 347/8/3 349/8/3
f 351/8/3 347/8/3 350/8/3
f 356/8/3 353/8/3 352/8/3
f 356/8/3 355/8/3 354/8/3
f 356/8/3 354/8/3 353/8/3
f 357/8/3 355/8/3 356/8/3
f 360/6/3 359/6/3 358/6/3
f 361/6/3 359/6/3 360/6/3
f 364/6/3 363/6/3 362/6/3
f 365/6/3 363/6/3 364/6/3
f 366/6/3 364/6/3 362/6/3
f 367/6/3 364/6/3 366/6/3
f 368/5/3 365/5/3 364/5/3
f 368/6/3 364/6/3 367/6/3
f 369/6/3 363/6/3 365/6/3
f 369/5/3 365/5/3 368/5/3
f 370/6/3 368/6/3 367/6/3
f 370/6/3 369/6/3 368/6/3
f 371/6/3 369/6/3 370/6/3
f 373/5/3 371/5/3 370/5/3
f 374/5/3 373/5/3 372/5/3
f 375/6/3 369/6/3 371/6/3
f 375/5/3 373/5/3 374/5/3
f 375/5/3 371/5/3 373/5/3
f 376/6/3 375/6/3 374/6/3
f 377/6/3 363/6/3 369/6/3
f 377/6/3 375/6/3 376/6/3
f 377/6/3 369/6/3 375/6/3
f 378/6/4 379/6/4 382/6/4
f 380/6/4 381/6/4 382/6/4
f 379/6/4 380/6/4 382/6/4
f 382/6/4 381/6/4 383/6/4
f 383/6/4 381/6/4 384/6/4
f 382/5/4 383/5/4 385/5/4
f 385/5/4 383/5/4 386/5/4
f 386/5/4 383/5/4 387/5/4
f 387/5/4 383/5/4 388/5/4
f 384/6/4 381/6/4 389/6/4
f 389/6/4 381/6/4 390/6/4
f 390/6/4 381/6/4 396/6/4
f 393/5/4 394/5/4 397/5/4
f 391/5/4 392/5/4 397/5/4
f 392/5/4 393/5/4 397/5/4
f 397/5/4 394/5/4 398/5/4
f 398/5/4 394/5/4 399/5/4
f 395/6/4 396/6/4 401/6/4
f 399/5/4 400/5/4 402/5/4
f 397/6/4 398/6/4 402/6/4
f 398/5/4 399/5/4 402/5/4
f 400/6/4 401/6/4 403/6/4
f 402/5/4 400/5/4 403/5/4
f 397/6/4 402/6/4 404/6/4
f 402/6/4 403/6/4 404/6/4
f 404/6/4 403/6/4 405/6/4
f 404/5/4 405/5/4 406/5/4
f 405/6/4 403/6/4 407/6/4
f 406/5/4 405/5/4 407/5/4
f 403/6/4 401/6/4 408/6/4
f 407/6/4 403/6/4 408/6/4
f 396/6/4 381/6/4 408/6/4
f 401/6/4 396/6/4 408/6/4
f 409/6/4 410/6/4 411/6/4
f 411/6/4 410/6/4 412/6/4
f 412/6/4 410/6/4 413/6/4
f 413/6/4 410/6/4 414/6/4
f 415/8/4 416/8/4 419/8/4
f 419/8/4 416/8/4 420/8/4
f 417/8/4 418/8/4 421/8/4
f 421/8/4 418/8/4 422/8/4
f 423/8/4 424/8/4 427/8/4
f 427/8/4 424/8/4 428/8/4
f 425/8/4 426/8/4 429/8/4
f 429/8/4 426/8/4 430/8/4
f 431/8/4 432/8/4 434/8/4
f 434/8/4 432/8/4 435/8/4
f 433/8/4 434/8/4 437/8/4
f 435/8/4 436/8/4 437/8/4
f 434/8/4 435/8/4 437/8/4
f 437/8/4 436/8/4 438/8/4
f 438/8/4 436/8/4 439/8/4
f 439/8/4 436/8/4 440/8/4
f 440/8/4 436/8/4 442/8/4
f 441/8/4 442/8/4 444/8/4
f 442/8/4 436/8/4 445/8/4
f 444/8/4 442/8/4 445/8/4
f 445/8/4 436/8/4 446/8/4
f 443/8/4 444/8/4 447/8/4
f 444/8/4 445/8/4 447/8/4
f 447/8/4 445/8/4 448/8/4
f 449/8/4 450/8/4 451/8/4
f 451/8/4 450/8/4 452/8/4
f 453/6/4 454/6/4 455/6/4
f 455/6/4 454/6/4 456/6/4
f 457/6/4 458/6/4 461/6/4
f 458/5/4 459/5/4 462/5/4
f 461/6/4 458/6/4 462/6/4
f 459/6/4 460/6/4 463/6/4
f 462/5/4 459/5/4 463/5/4
f 463/6/4 460/6/4 464/6/4
f 465/6/4 466/6/4 467/6/4
f 467/6/4 466/6/4 468/6/4
f 468/6/4 466/6/4 469/6/4
f 469/6/4 466/6/4 470/6/4
f 468/6/4 469/6/4 471/6/4
f 469/5/4 470/5/4 471/5/4
f 470/6/4 466/6/4 472/6/4
f 471/5/4 470/5/4 472/5/4
f 465/6/4 467/6/4 473/6/4
f 467/5/4 468/5/4 473/5/4
f 471/6/4 472/6/4 474/6/4
f 473/5/4 468/5/4 474/5/4
f 468/6/4 471/6/4 474/6/4
f 473/6/4 474/6/4 475/6/4
f 475/6/4 474/6/4 476/6/4
f 476/6/4 474/6/4 477/6/4
f 474/6/4 472/6/4 478/6/4
f 477/6/4 474/6/4 478/6/4
f 473/6/4 475/6/4 479/6/4
f 477/5/4 478/5/4 481/5/4
f 479/6/4 480/6/4 482/6/4
f 480/5/4 481/5/4 483/5/4
f 482/6/4 480/6/4 483/6/4
f 479/6/4 482/6/4 484/6/4
f 482/5/4 483/5/4 484/5/4
f 478/6/4 472/6/4 485/6/4
f 484/5/4 483/5/4 485/5/4
f 483/5/4 481/5/4 485/5/4
f 481/5/4 478/5/4 485/5/4
f 465/6/4 473/6/4 486/6/4
f 479/6/4 484/6/4 486/6/4
f 484/6/4 485/6/4 486/6/4
f 473/6/4 479/6/4 486/6/4
f 472/6/4 466/6/4 487/6/4
f 486/6/4 485/6/4 487/6/4
f 485/6/4 472/6/4 487/6/4
f 490/6/4 491/6/4 492/6/4
f 492/6/4 491/6/4 493/6/4
f 488/7/4 489/7/4 494/7/4
f 494/7/4 489/7/4 495/7/4
f 500/6/5 497/6/5 496/6/5
f 501/5/5 498/5/5 497/5/5
f 501/6/5 497/6/5 500/6/5
f 502/6/5 499/6/5 498/6/5
f 502/5/5 498/5/5 501/5/5
f 503/6/5 499/6/5 502/6/5
f 504/8/5 501/8/5 500/8/5
f 504/6/5 500/6/5 496/6/5
f 504/8/5 503/8/5 502/8/5
f 504/8/5 502/8/5 501/8/5
f 505/6/5 499/6/5 503/6/5
f 505/8/5 503/8/5 504/8/5
f 506/6/5 499/6/5 505/6/5
f 507/6/5 504/6/5 496/6/5
f 507/6/5 505/6/5 504/6/5
f 508/6/5 505/6/5 507/6/5
f 511/6/5 510/6/5 509/6/5
f 512/6/5 510/6/5 511/6/5
f 515/6/5 514/6/5 513/6/5
f 516/6/5 514/6/5 515/6/5
f 519/6/5 518/6/5 517/6/5
f 520/6/5 518/6/5 519/6/5
f 523/8/5 522/8/5 521/8/5
f 524/8/5 522/8/5 523/8/5
f 527/1/5 526/1/5 525/1/5
f 528/1/5 526/1/5 527/1/5
f 531/6/5 530/6/5 529/6/5
f 532/6/5 530/6/5 531/6/5
f 536/2/5 534/2/5 533/2/5
f 537/2/5 534/2/5 536/2/5
f 540/2/5 536/2/5 535/2/5
f 540/2/5 538/2/5 537/2/5
f 540/2/5 537/2/5 536/2/5
f 541/2/5 538/2/5 540/2/5
f 545/2/5 540/2/5 539/2/5
f 546/2/5 540/2/5 545/2/5
f 547/2/5 542/2/5 541/2/5
f 548/2/5 542/2/5 547/2/5
f 549/6/5 544/6/5 543/6/5
f 550/6/5 544/6/5 549/6/5
f 553/7/5 552/7/5 551/7/5
f 554/7/5 552/7/5 553/7/5
f 557/7/5 556/7/5 555/7/5
f 558/7/5 556/7/5 557/7/5
f 559/7/5 552/7/5 554/7/5
f 560/7/5 553/7/5 551/7/5
f 561/7/5 559/7/5 558/7/5
f 562/7/5 560/7/5 551/7/5
f 562/7/5 561/7/5 560/7/5
f 563/7/5 559/7/5 561/7/5
f 563/7/5 561/7/5 562/7/5
f 563/7/5 552/7/5 559/7/5
f 564/6/6 565/6/6 566/6/6
f 566/6/6 565/6/6 567/6/6
f 567/6/6 565/6/6 568/6/6
f 569/6/6 570/6/6 572/6/6
f 570/6/6 571/6/6 572/6/6
f 572/6/6 571/6/6 573/6/6
f 574/6/6 575/6/6 576/6/6
f 576/6/6 575/6/6 577/6/6
f 581/8/6 582/8/6 585/8/6
f 583/8/6 584/8/6 585/8/6
f 582/8/6 583/8/6 585/8/6
f 578/8/6 579/8/6 586/8/6
f 579/8/6 580/8/6 586/8/6
f 586/8/6 580/8/6 587/8/6
f 581/8/6 585/8/6 588/8/6
f 588/8/6 585/8/6 589/8/6
f 589/8/6 585/8/6 590/8/6
f 589/8/6 590/8/6 591/8/6
f 578/8/6 586/8/6 592/8/6
f 592/8/6 593/8/6 594/8/6
f 589/8/6 591/8/6 597/8/6
f 597/8/6 591/8/6 598/8/6
f 596/8/6 597/8/6 598/8/6
f 594/8/6 595/8/6 599/8/6
f 578/8/6 592/8/6 599/8/6
f 592/8/6 594/8/6 599/8/6
f 599/8/6 595/8/6 600/8/6
f 596/8/6 598/8/6 601/8/6
f 601/8/6 598/8/6 602/8/6
f 602/8/6 598/8/6 603/8/6
f 604/5/6 605/5/6 606/5/6
f 606/5/6 605/5/6 607/5/6
f 608/8/6 609/8/6 612/8/6
f 610/8/6 611/8/6 613/8/6
f 608/8/6 612/8/6 614/8/6
f 612/8/6 613/8/6 614/8/6
f 614/8/6 613/8/6 615/8/6
f 613/8/6 611/8/6 616/8/6
f 615/8/6 613/8/6 616/8/6
f 617/8/6 618/8/6 619/8/6
f 619/8/6 618/8/6 620/8/6
f 621/1/6 622/1/6 625/1/6
f 625/1/6 622/1/6 626/1/6
f 623/1/6 624/1/6 627/1/6
f 627/1/6 624/1/6 628/1/6
f 629/1/6 630/1/6 631/1/6
f 631/1/6 630/1/6 632/1/6
f 633/8/6 634/8/6 637/8/6
f 637/8/6 634/8/6 638/8/6
f 635/8/6 636/8/6 639/8/6
f 639/8/6 636/8/6 640/8/6
f 641/2/6 642/2/6 643/2/6
f 643/2/6 642/2/6 644/2/6
f 645/2/6 646/2/6 649/2/6
f 649/2/6 646/2/6 650/2/6
f 647/2/6 648/2/6 651/2/6
f 651/2/6 648/2/6 652/2/6
f 649/8/6 650/8/6 653/8/6
f 653/8/6 650/8/6 654/8/6
f 651/8/6 652/8/6 655/8/6
f 655/8/6 652/8/6 656/8/6
f 657/6/6 658/6/6 659/6/6
f 659/6/6 658/6/6 660/6/6
f 661/8/6 662/8/6 663/8/6
f 663/8/6 662/8/6 664/8/6
f 665/2/6 666/2/6 667/2/6
f 667/2/6 666/2/6 668/2/6
f 667/8/6 668/8/6 669/8/6
f 669/8/6 668/8/6 670/8/6
f 671/7/6 672/7/6 673/7/6
f 673/7/6 672/7/6 674/7/6
