# MagicaVoxel @ Ephtracy

# group
g pewdiepie4_hammer

# material
mtllib pewdiepie4_hammer.mtl
usemtl palette

# normals
vn -1 0 0
vn 1 0 0
vn 0 0 1
vn 0 0 -1
vn 0 -1 0
vn 0 1 0

# texcoords
vt 0.373047 0.5
vt 0.986328 0.5

# verts
v -2.5 40 5.5
v -2.5 40 -1.5
v -2.5 41 -1.5
v -2.5 41 -5.5
v -2.5 44 -1.5
v -2.5 44 -5.5
v -2.5 45 5.5
v -2.5 45 -1.5
v -1.5 0 1.5
v -1.5 0 -0.5
v -1.5 40 1.5
v -1.5 40 -0.5
v 1.5 0 1.5
v 1.5 0 -0.5
v 1.5 40 1.5
v 1.5 40 -0.5
v 2.5 40 5.5
v 2.5 40 -1.5
v 2.5 41 -1.5
v 2.5 41 -5.5
v 2.5 44 -1.5
v 2.5 44 -5.5
v 2.5 45 5.5
v 2.5 45 -1.5
v -2.5 40 5.5
v -2.5 45 5.5
v 2.5 40 5.5
v 2.5 45 5.5
v -1.5 0 1.5
v -1.5 40 1.5
v 1.5 0 1.5
v 1.5 40 1.5
v -1.5 0 -0.5
v -1.5 40 -0.5
v 1.5 0 -0.5
v 1.5 40 -0.5
v -2.5 40 -1.5
v -2.5 41 -1.5
v -2.5 44 -1.5
v -2.5 45 -1.5
v 2.5 40 -1.5
v 2.5 41 -1.5
v 2.5 44 -1.5
v 2.5 45 -1.5
v -2.5 41 -5.5
v -2.5 44 -5.5
v 2.5 41 -5.5
v 2.5 44 -5.5
v -1.5 0 1.5
v 1.5 0 1.5
v -1.5 0 -0.5
v 1.5 0 -0.5
v -2.5 40 5.5
v 2.5 40 5.5
v -1.5 40 1.5
v 1.5 40 1.5
v -1.5 40 -0.5
v 1.5 40 -0.5
v -2.5 40 -1.5
v 2.5 40 -1.5
v -2.5 41 -1.5
v 2.5 41 -1.5
v -2.5 41 -5.5
v 2.5 41 -5.5
v -2.5 44 -1.5
v 2.5 44 -1.5
v -2.5 44 -5.5
v 2.5 44 -5.5
v -2.5 45 5.5
v 2.5 45 5.5
v -2.5 45 -1.5
v 2.5 45 -1.5

# faces
f 3/2/1 2/2/1 1/2/1
f 5/2/1 3/2/1 1/2/1
f 5/2/1 4/2/1 3/2/1
f 6/2/1 4/2/1 5/2/1
f 7/2/1 5/2/1 1/2/1
f 8/2/1 5/2/1 7/2/1
f 11/1/1 10/1/1 9/1/1
f 12/1/1 10/1/1 11/1/1
f 13/1/2 14/1/2 15/1/2
f 15/1/2 14/1/2 16/1/2
f 17/2/2 18/2/2 19/2/2
f 17/2/2 19/2/2 21/2/2
f 19/2/2 20/2/2 21/2/2
f 21/2/2 20/2/2 22/2/2
f 17/2/2 21/2/2 23/2/2
f 23/2/2 21/2/2 24/2/2
f 27/2/3 26/2/3 25/2/3
f 28/2/3 26/2/3 27/2/3
f 31/1/3 30/1/3 29/1/3
f 32/1/3 30/1/3 31/1/3
f 33/1/4 34/1/4 35/1/4
f 35/1/4 34/1/4 36/1/4
f 37/2/4 38/2/4 41/2/4
f 41/2/4 38/2/4 42/2/4
f 39/2/4 40/2/4 43/2/4
f 43/2/4 40/2/4 44/2/4
f 45/2/4 46/2/4 47/2/4
f 47/2/4 46/2/4 48/2/4
f 51/1/5 50/1/5 49/1/5
f 52/1/5 50/1/5 51/1/5
f 55/2/5 54/2/5 53/2/5
f 56/2/5 54/2/5 55/2/5
f 57/2/5 55/2/5 53/2/5
f 58/2/5 54/2/5 56/2/5
f 59/2/5 57/2/5 53/2/5
f 59/2/5 58/2/5 57/2/5
f 60/2/5 54/2/5 58/2/5
f 60/2/5 58/2/5 59/2/5
f 63/2/5 62/2/5 61/2/5
f 64/2/5 62/2/5 63/2/5
f 65/2/6 66/2/6 67/2/6
f 67/2/6 66/2/6 68/2/6
f 69/2/6 70/2/6 71/2/6
f 71/2/6 70/2/6 72/2/6
