# MagicaVoxel @ Ephtracy

# group
g pewdiepie2_body

# material
mtllib pewdiepie2_body.mtl
usemtl palette

# normals
vn -1 0 0
vn 1 0 0
vn 0 0 1
vn 0 0 -1
vn 0 -1 0
vn 0 1 0

# texcoords
vt 0.00195313 0.5
vt 0.0332031 0.5
vt 0.0371094 0.5
vt 0.306641 0.5
vt 0.537109 0.5
vt 0.990234 0.5

# verts
v -10 0 7.5
v -10 0 -4.5
v -10 28 7.5
v -10 28 -4.5
v -6 1 8.5
v -6 1 7.5
v -6 8 8.5
v -6 8 7.5
v -6 24 -4.5
v -6 24 -8.5
v -6 28 7.5
v -6 28 3.5
v -6 28 -0.5
v -6 28 -4.5
v -6 32 3.5
v -6 32 -0.5
v -6 32 -8.5
v -6 34 7.5
v -6 34 3.5
v -6 44 7.5
v -6 44 3.5
v -6 44 -0.5
v -6 47 2.5
v -6 47 -0.5
v -6 48 7.5
v -6 48 2.5
v -2 36 8.5
v -2 36 7.5
v -2 37 8.5
v -2 37 7.5
v -1 37 8.5
v -1 37 7.5
v -1 42 8.5
v -1 42 7.5
v 1 37 8.5
v 1 37 7.5
v 1 42 8.5
v 1 42 7.5
v 2 36 8.5
v 2 36 7.5
v 2 37 8.5
v 2 37 7.5
v 6 1 8.5
v 6 1 7.5
v 6 8 8.5
v 6 8 7.5
v 6 24 -4.5
v 6 24 -8.5
v 6 28 7.5
v 6 28 3.5
v 6 28 -0.5
v 6 28 -4.5
v 6 32 3.5
v 6 32 -0.5
v 6 32 -8.5
v 6 34 7.5
v 6 34 3.5
v 6 44 7.5
v 6 44 3.5
v 6 44 -0.5
v 6 47 2.5
v 6 47 -0.5
v 6 48 7.5
v 6 48 2.5
v 10 0 7.5
v 10 0 -4.5
v 10 28 7.5
v 10 28 -4.5
v -6 1 8.5
v -6 8 8.5
v -2 36 8.5
v -2 37 8.5
v -1 37 8.5
v -1 42 8.5
v 1 37 8.5
v 1 42 8.5
v 2 36 8.5
v 2 37 8.5
v 6 1 8.5
v 6 8 8.5
v -10 0 7.5
v -10 28 7.5
v -6 1 7.5
v -6 8 7.5
v -6 28 7.5
v -6 34 7.5
v -6 44 7.5
v -6 48 7.5
v -5 27 7.5
v -5 28 7.5
v -5 34 7.5
v -5 35 7.5
v -5 41 7.5
v -5 42 7.5
v -4 39 7.5
v -4 41 7.5
v -3 30 7.5
v -3 33 7.5
v -2 32 7.5
v -2 33 7.5
v -2 35 7.5
v -2 36 7.5
v -2 37 7.5
v -2 39 7.5
v -2 41 7.5
v -2 42 7.5
v -1 30 7.5
v -1 31 7.5
v -1 37 7.5
v -1 42 7.5
v 1 30 7.5
v 1 31 7.5
v 1 37 7.5
v 1 42 7.5
v 2 32 7.5
v 2 33 7.5
v 2 35 7.5
v 2 36 7.5
v 2 37 7.5
v 2 39 7.5
v 2 41 7.5
v 2 42 7.5
v 3 30 7.5
v 3 33 7.5
v 4 39 7.5
v 4 41 7.5
v 5 27 7.5
v 5 28 7.5
v 5 34 7.5
v 5 35 7.5
v 5 41 7.5
v 5 42 7.5
v 6 1 7.5
v 6 8 7.5
v 6 28 7.5
v 6 34 7.5
v 6 44 7.5
v 6 48 7.5
v 10 0 7.5
v 10 28 7.5
v -6 47 2.5
v -6 48 2.5
v 6 47 2.5
v 6 48 2.5
v -6 32 -0.5
v -6 44 -0.5
v -6 47 -0.5
v 6 32 -0.5
v 6 44 -0.5
v 6 47 -0.5
v -10 0 -4.5
v -10 28 -4.5
v -6 24 -4.5
v -6 28 -4.5
v 6 24 -4.5
v 6 28 -4.5
v 10 0 -4.5
v 10 28 -4.5
v -6 24 -8.5
v -6 32 -8.5
v 6 24 -8.5
v 6 32 -8.5
v -10 0 7.5
v 10 0 7.5
v -10 0 -4.5
v 10 0 -4.5
v -6 1 8.5
v 6 1 8.5
v -6 1 7.5
v 6 1 7.5
v -6 24 -4.5
v 6 24 -4.5
v -6 24 -8.5
v 6 24 -8.5
v -2 36 8.5
v 2 36 8.5
v -2 36 7.5
v 2 36 7.5
v -6 8 8.5
v 6 8 8.5
v -6 8 7.5
v 6 8 7.5
v -10 28 7.5
v -6 28 7.5
v 6 28 7.5
v 10 28 7.5
v -6 28 3.5
v 6 28 3.5
v -6 28 -0.5
v 6 28 -0.5
v -10 28 -4.5
v -6 28 -4.5
v 6 28 -4.5
v 10 28 -4.5
v -6 32 -0.5
v 6 32 -0.5
v -6 32 -8.5
v 6 32 -8.5
v -2 37 8.5
v -1 37 8.5
v 1 37 8.5
v 2 37 8.5
v -2 37 7.5
v -1 37 7.5
v 1 37 7.5
v 2 37 7.5
v -1 42 8.5
v 1 42 8.5
v -1 42 7.5
v 1 42 7.5
v -6 47 2.5
v 6 47 2.5
v -6 47 -0.5
v 6 47 -0.5
v -6 48 7.5
v 6 48 7.5
v -6 48 2.5
v 6 48 2.5

# faces
f 3/6/1 2/6/1 1/6/1
f 4/6/1 2/6/1 3/6/1
f 7/6/1 6/6/1 5/6/1
f 8/6/1 6/6/1 7/6/1
f 14/6/1 10/6/1 9/6/1
f 15/2/1 13/2/1 12/2/1
f 15/5/1 12/5/1 11/5/1
f 16/6/1 14/6/1 13/6/1
f 16/2/1 13/2/1 15/2/1
f 17/6/1 10/6/1 14/6/1
f 17/6/1 14/6/1 16/6/1
f 18/5/1 15/5/1 11/5/1
f 18/5/1 16/5/1 15/5/1
f 19/5/1 16/5/1 18/5/1
f 20/2/1 19/2/1 18/2/1
f 21/5/1 16/5/1 19/5/1
f 21/2/1 19/2/1 20/2/1
f 22/5/1 16/5/1 21/5/1
f 23/3/1 21/3/1 20/3/1
f 23/3/1 22/3/1 21/3/1
f 24/3/1 22/3/1 23/3/1
f 25/3/1 23/3/1 20/3/1
f 26/3/1 23/3/1 25/3/1
f 29/2/1 28/2/1 27/2/1
f 30/2/1 28/2/1 29/2/1
f 33/2/1 32/2/1 31/2/1
f 34/2/1 32/2/1 33/2/1
f 35/2/2 36/2/2 37/2/2
f 37/2/2 36/2/2 38/2/2
f 39/2/2 40/2/2 41/2/2
f 41/2/2 40/2/2 42/2/2
f 43/6/2 44/6/2 45/6/2
f 45/6/2 44/6/2 46/6/2
f 47/6/2 48/6/2 52/6/2
f 50/2/2 51/2/2 53/2/2
f 49/5/2 50/5/2 53/5/2
f 51/6/2 52/6/2 54/6/2
f 53/2/2 51/2/2 54/2/2
f 52/6/2 48/6/2 55/6/2
f 54/6/2 52/6/2 55/6/2
f 49/5/2 53/5/2 56/5/2
f 53/5/2 54/5/2 56/5/2
f 56/5/2 54/5/2 57/5/2
f 56/2/2 57/2/2 58/2/2
f 57/5/2 54/5/2 59/5/2
f 58/2/2 57/2/2 59/2/2
f 59/5/2 54/5/2 60/5/2
f 58/3/2 59/3/2 61/3/2
f 59/3/2 60/3/2 61/3/2
f 61/3/2 60/3/2 62/3/2
f 58/3/2 61/3/2 63/3/2
f 63/3/2 61/3/2 64/3/2
f 65/6/2 66/6/2 67/6/2
f 67/6/2 66/6/2 68/6/2
f 73/2/3 72/2/3 71/2/3
f 75/2/3 73/2/3 71/2/3
f 75/2/3 74/2/3 73/2/3
f 76/2/3 74/2/3 75/2/3
f 77/2/3 75/2/3 71/2/3
f 78/2/3 75/2/3 77/2/3
f 79/6/3 70/6/3 69/6/3
f 80/6/3 70/6/3 79/6/3
f 83/6/3 82/6/3 81/6/3
f 84/6/3 82/6/3 83/6/3
f 85/6/3 82/6/3 84/6/3
f 89/6/3 85/6/3 84/6/3
f 90/5/3 86/5/3 85/5/3
f 90/6/3 85/6/3 89/6/3
f 91/2/3 87/2/3 86/2/3
f 91/5/3 86/5/3 90/5/3
f 92/2/3 87/2/3 91/2/3
f 93/2/3 87/2/3 92/2/3
f 94/2/3 87/2/3 93/2/3
f 95/2/3 93/2/3 92/2/3
f 96/5/3 94/5/3 93/5/3
f 96/2/3 93/2/3 95/2/3
f 97/5/3 91/5/3 90/5/3
f 97/5/3 92/5/3 91/5/3
f 98/5/3 92/5/3 97/5/3
f 99/2/3 98/2/3 97/2/3
f 100/5/3 92/5/3 98/5/3
f 100/2/3 98/2/3 99/2/3
f 101/2/3 95/2/3 92/2/3
f 101/5/3 92/5/3 100/5/3
f 102/2/3 95/2/3 101/2/3
f 103/2/3 95/2/3 102/2/3
f 104/1/3 96/1/3 95/1/3
f 104/2/3 95/2/3 103/2/3
f 105/5/3 94/5/3 96/5/3
f 105/1/3 96/1/3 104/1/3
f 106/2/3 87/2/3 94/2/3
f 106/5/3 94/5/3 105/5/3
f 107/5/3 97/5/3 90/5/3
f 107/2/3 99/2/3 97/2/3
f 108/2/3 99/2/3 107/2/3
f 109/2/3 104/2/3 103/2/3
f 109/2/3 105/2/3 104/2/3
f 109/2/3 106/2/3 105/2/3
f 110/2/3 87/2/3 106/2/3
f 110/2/3 106/2/3 109/2/3
f 111/5/3 108/5/3 107/5/3
f 111/5/3 107/5/3 90/5/3
f 112/2/3 99/2/3 108/2/3
f 112/5/3 108/5/3 111/5/3
f 114/2/3 87/2/3 110/2/3
f 115/2/3 99/2/3 112/2/3
f 115/1/3 100/1/3 99/1/3
f 115/2/3 112/2/3 111/2/3
f 116/5/3 101/5/3 100/5/3
f 116/1/3 100/1/3 115/1/3
f 116/5/3 102/5/3 101/5/3
f 117/5/3 102/5/3 116/5/3
f 118/5/3 102/5/3 117/5/3
f 119/2/3 114/2/3 113/2/3
f 120/2/3 114/2/3 119/2/3
f 121/2/3 114/2/3 120/2/3
f 122/2/3 87/2/3 114/2/3
f 122/2/3 114/2/3 121/2/3
f 123/5/3 111/5/3 90/5/3
f 123/2/3 115/2/3 111/2/3
f 123/2/3 116/2/3 115/2/3
f 124/5/3 117/5/3 116/5/3
f 124/2/3 116/2/3 123/2/3
f 125/2/3 118/2/3 117/2/3
f 125/1/3 121/1/3 120/1/3
f 125/2/3 120/2/3 119/2/3
f 125/2/3 119/2/3 118/2/3
f 126/5/3 122/5/3 121/5/3
f 126/1/3 121/1/3 125/1/3
f 127/2/3 90/2/3 89/2/3
f 127/6/3 89/6/3 84/6/3
f 128/5/3 124/5/3 123/5/3
f 128/2/3 90/2/3 127/2/3
f 128/5/3 123/5/3 90/5/3
f 129/5/3 117/5/3 124/5/3
f 129/5/3 124/5/3 128/5/3
f 130/2/3 126/2/3 125/2/3
f 130/5/3 117/5/3 129/5/3
f 130/2/3 125/2/3 117/2/3
f 131/5/3 122/5/3 126/5/3
f 131/2/3 126/2/3 130/2/3
f 132/2/3 87/2/3 122/2/3
f 132/5/3 122/5/3 131/5/3
f 133/6/3 83/6/3 81/6/3
f 134/6/3 128/6/3 127/6/3
f 134/6/3 127/6/3 84/6/3
f 135/5/3 129/5/3 128/5/3
f 135/6/3 128/6/3 134/6/3
f 136/2/3 130/2/3 129/2/3
f 136/5/3 129/5/3 135/5/3
f 136/2/3 131/2/3 130/2/3
f 136/2/3 132/2/3 131/2/3
f 137/2/3 87/2/3 132/2/3
f 137/2/3 132/2/3 136/2/3
f 137/3/3 88/3/3 87/3/3
f 138/3/3 88/3/3 137/3/3
f 139/6/3 135/6/3 134/6/3
f 139/6/3 134/6/3 133/6/3
f 139/6/3 133/6/3 81/6/3
f 140/6/3 135/6/3 139/6/3
f 141/3/4 142/3/4 143/3/4
f 143/3/4 142/3/4 144/3/4
f 145/5/4 146/5/4 148/5/4
f 146/3/4 147/3/4 149/3/4
f 148/5/4 146/5/4 149/5/4
f 149/3/4 147/3/4 150/3/4
f 151/6/4 152/6/4 153/6/4
f 153/6/4 152/6/4 154/6/4
f 151/6/4 153/6/4 155/6/4
f 151/6/4 155/6/4 157/6/4
f 155/6/4 156/6/4 157/6/4
f 157/6/4 156/6/4 158/6/4
f 159/6/4 160/6/4 161/6/4
f 161/6/4 160/6/4 162/6/4
f 165/6/5 164/6/5 163/6/5
f 166/6/5 164/6/5 165/6/5
f 169/6/5 168/6/5 167/6/5
f 170/6/5 168/6/5 169/6/5
f 173/6/5 172/6/5 171/6/5
f 174/6/5 172/6/5 173/6/5
f 177/2/5 176/2/5 175/2/5
f 178/2/5 176/2/5 177/2/5
f 179/6/6 180/6/6 181/6/6
f 181/6/6 180/6/6 182/6/6
f 183/6/6 184/6/6 187/6/6
f 185/6/6 186/6/6 188/6/6
f 183/6/6 187/6/6 189/6/6
f 188/6/6 186/6/6 190/6/6
f 183/6/6 189/6/6 191/6/6
f 191/6/6 189/6/6 192/6/6
f 190/6/6 186/6/6 193/6/6
f 193/6/6 186/6/6 194/6/6
f 195/6/6 196/6/6 197/6/6
f 197/6/6 196/6/6 198/6/6
f 199/2/6 200/2/6 203/2/6
f 203/2/6 200/2/6 204/2/6
f 201/2/6 202/2/6 205/2/6
f 205/2/6 202/2/6 206/2/6
f 207/2/6 208/2/6 209/2/6
f 209/2/6 208/2/6 210/2/6
f 211/3/6 212/3/6 213/3/6
f 213/3/6 212/3/6 214/3/6
f 215/3/6 216/3/6 217/3/6
f 217/3/6 216/3/6 218/3/6
