# MagicaVoxel @ Ephtracy

# group
g pox

# material
mtllib pox.mtl
usemtl palette

# normals
vn -1 0 0
vn 1 0 0
vn 0 0 1
vn 0 0 -1
vn 0 -1 0
vn 0 1 0

# texcoords
vt 0.0449219 0.5
vt 0.841797 0.5
vt 0.966797 0.5
vt 0.970703 0.5
vt 0.986328 0.5
vt 0.994141 0.5

# verts
v -7 0 8
v -7 0 -8
v -7 1 6
v -7 1 4
v -7 1 3
v -7 1 1
v -7 1 -0
v -7 1 -3
v -7 1 -4
v -7 1 -6
v -7 2 6
v -7 2 4
v -7 2 3
v -7 2 1
v -7 2 -0
v -7 2 -3
v -7 2 -4
v -7 2 -6
v -7 3 7
v -7 3 -7
v -7 15 7
v -7 15 -7
v -7 17 8
v -7 17 -8
v 6 0 8
v 6 0 -8
v 6 1 6
v 6 1 5
v 6 1 1
v 6 1 -7
v 6 2 6
v 6 2 5
v 6 2 1
v 6 2 -7
v 6 3 7
v 6 3 -7
v 6 4 6
v 6 4 -6
v 6 7 5
v 6 7 4
v 6 7 2
v 6 7 -1
v 6 7 -2
v 6 7 -3
v 6 7 -4
v 6 7 -5
v 6 8 1
v 6 8 -0
v 6 8 -2
v 6 8 -3
v 6 8 -4
v 6 8 -5
v 6 9 1
v 6 9 -0
v 6 9 -1
v 6 9 -3
v 6 9 -4
v 6 9 -5
v 6 10 4
v 6 10 2
v 6 10 -3
v 6 10 -4
v 6 10 -5
v 6 11 4
v 6 11 3
v 6 12 4
v 6 12 3
v 6 13 5
v 6 13 2
v 6 15 6
v 6 15 -6
v 6 16 7
v 6 16 -7
v 6 17 8
v 6 17 -8
v 7 1 1
v 7 1 -7
v 7 2 1
v 7 2 -7
v -7 0 8
v -7 17 8
v -6 4 8
v -6 15 8
v 5 4 8
v 5 15 8
v 6 0 8
v 6 17 8
v 6 1 1
v 6 2 1
v 7 1 1
v 7 2 1
v 6 1 -7
v 6 2 -7
v 7 1 -7
v 7 2 -7
v -7 0 -8
v -7 17 -8
v -6 4 -8
v -6 15 -8
v 5 4 -8
v 5 15 -8
v 6 0 -8
v 6 17 -8
v -7 0 8
v 6 0 8
v -7 0 -8
v 6 0 -8
v 6 1 1
v 7 1 1
v 6 1 -7
v 7 1 -7
v 6 2 1
v 7 2 1
v 6 2 -7
v 7 2 -7
v -7 17 8
v 6 17 8
v -7 17 -8
v 6 17 -8

# faces
f 3/3/1 2/3/1 1/3/1
f 4/3/1 2/3/1 3/3/1
f 5/3/1 2/3/1 4/3/1
f 6/3/1 2/3/1 5/3/1
f 7/3/1 2/3/1 6/3/1
f 8/3/1 2/3/1 7/3/1
f 9/3/1 2/3/1 8/3/1
f 10/3/1 2/3/1 9/3/1
f 11/3/1 3/3/1 1/3/1
f 11/6/1 4/6/1 3/6/1
f 12/3/1 5/3/1 4/3/1
f 12/6/1 4/6/1 11/6/1
f 13/6/1 6/6/1 5/6/1
f 13/3/1 5/3/1 12/3/1
f 14/3/1 7/3/1 6/3/1
f 14/6/1 6/6/1 13/6/1
f 15/6/1 8/6/1 7/6/1
f 15/3/1 7/3/1 14/3/1
f 16/3/1 9/3/1 8/3/1
f 16/6/1 8/6/1 15/6/1
f 17/6/1 10/6/1 9/6/1
f 17/3/1 9/3/1 16/3/1
f 18/3/1 2/3/1 10/3/1
f 18/6/1 10/6/1 17/6/1
f 19/3/1 17/3/1 16/3/1
f 19/3/1 16/3/1 15/3/1
f 19/3/1 18/3/1 17/3/1
f 19/3/1 15/3/1 14/3/1
f 19/3/1 14/3/1 13/3/1
f 19/3/1 13/3/1 12/3/1
f 19/3/1 12/3/1 11/3/1
f 19/3/1 11/3/1 1/3/1
f 20/3/1 2/3/1 18/3/1
f 20/3/1 18/3/1 19/3/1
f 21/3/1 19/3/1 1/3/1
f 21/4/1 20/4/1 19/4/1
f 22/3/1 2/3/1 20/3/1
f 22/4/1 20/4/1 21/4/1
f 23/3/1 21/3/1 1/3/1
f 23/3/1 22/3/1 21/3/1
f 24/3/1 2/3/1 22/3/1
f 24/3/1 22/3/1 23/3/1
f 25/3/2 26/3/2 27/3/2
f 27/3/2 26/3/2 28/3/2
f 28/3/2 26/3/2 29/3/2
f 29/3/2 26/3/2 30/3/2
f 25/3/2 27/3/2 31/3/2
f 27/2/2 28/2/2 31/2/2
f 28/3/2 29/3/2 32/3/2
f 31/2/2 28/2/2 32/2/2
f 32/3/2 29/3/2 33/3/2
f 30/3/2 26/3/2 34/3/2
f 32/3/2 33/3/2 35/3/2
f 33/3/2 34/3/2 35/3/2
f 25/3/2 31/3/2 35/3/2
f 31/3/2 32/3/2 35/3/2
f 34/3/2 26/3/2 36/3/2
f 35/3/2 34/3/2 36/3/2
f 35/5/2 36/5/2 37/5/2
f 37/5/2 36/5/2 38/5/2
f 37/1/2 38/1/2 39/1/2
f 39/1/2 38/1/2 40/1/2
f 40/1/2 38/1/2 41/1/2
f 41/1/2 38/1/2 42/1/2
f 42/1/2 38/1/2 43/1/2
f 43/1/2 38/1/2 44/1/2
f 44/1/2 38/1/2 45/1/2
f 45/1/2 38/1/2 46/1/2
f 41/6/2 42/6/2 47/6/2
f 47/6/2 42/6/2 48/6/2
f 42/1/2 43/1/2 49/1/2
f 43/6/2 44/6/2 49/6/2
f 44/1/2 45/1/2 50/1/2
f 49/6/2 44/6/2 50/6/2
f 45/6/2 46/6/2 51/6/2
f 50/1/2 45/1/2 51/1/2
f 46/1/2 38/1/2 52/1/2
f 51/6/2 46/6/2 52/6/2
f 47/1/2 48/1/2 53/1/2
f 41/6/2 47/6/2 53/6/2
f 48/6/2 42/6/2 54/6/2
f 53/1/2 48/1/2 54/1/2
f 42/1/2 49/1/2 55/1/2
f 54/6/2 42/6/2 55/6/2
f 49/1/2 50/1/2 55/1/2
f 50/6/2 51/6/2 56/6/2
f 55/1/2 50/1/2 56/1/2
f 51/1/2 52/1/2 57/1/2
f 56/6/2 51/6/2 57/6/2
f 52/1/2 38/1/2 58/1/2
f 57/1/2 52/1/2 58/1/2
f 39/6/2 40/6/2 59/6/2
f 40/1/2 41/1/2 59/1/2
f 54/6/2 55/6/2 60/6/2
f 59/1/2 41/1/2 60/1/2
f 41/6/2 53/6/2 60/6/2
f 55/6/2 56/6/2 60/6/2
f 53/6/2 54/6/2 60/6/2
f 56/1/2 57/1/2 61/1/2
f 60/6/2 56/6/2 61/6/2
f 57/6/2 58/6/2 62/6/2
f 61/1/2 57/1/2 62/1/2
f 58/1/2 38/1/2 63/1/2
f 62/6/2 58/6/2 63/6/2
f 39/6/2 59/6/2 64/6/2
f 59/6/2 60/6/2 64/6/2
f 64/6/2 60/6/2 65/6/2
f 39/6/2 64/6/2 66/6/2
f 64/1/2 65/1/2 66/1/2
f 65/6/2 60/6/2 67/6/2
f 66/1/2 65/1/2 67/1/2
f 37/1/2 39/1/2 68/1/2
f 39/6/2 66/6/2 68/6/2
f 66/6/2 67/6/2 68/6/2
f 67/6/2 60/6/2 69/6/2
f 68/6/2 67/6/2 69/6/2
f 61/1/2 62/1/2 69/1/2
f 62/1/2 63/1/2 69/1/2
f 60/1/2 61/1/2 69/1/2
f 35/5/2 37/5/2 70/5/2
f 37/1/2 68/1/2 70/1/2
f 68/1/2 69/1/2 70/1/2
f 69/1/2 63/1/2 71/1/2
f 70/1/2 69/1/2 71/1/2
f 38/5/2 36/5/2 71/5/2
f 63/1/2 38/1/2 71/1/2
f 25/3/2 35/3/2 72/3/2
f 35/5/2 70/5/2 72/5/2
f 70/5/2 71/5/2 72/5/2
f 71/5/2 36/5/2 73/5/2
f 72/5/2 71/5/2 73/5/2
f 36/3/2 26/3/2 73/3/2
f 25/3/2 72/3/2 74/3/2
f 72/3/2 73/3/2 74/3/2
f 73/3/2 26/3/2 75/3/2
f 74/3/2 73/3/2 75/3/2
f 76/5/2 77/5/2 78/5/2
f 78/5/2 77/5/2 79/5/2
f 82/3/3 81/3/3 80/3/3
f 83/3/3 81/3/3 82/3/3
f 84/3/3 82/3/3 80/3/3
f 84/4/3 83/4/3 82/4/3
f 85/3/3 81/3/3 83/3/3
f 85/4/3 83/4/3 84/4/3
f 86/3/3 84/3/3 80/3/3
f 86/3/3 85/3/3 84/3/3
f 87/3/3 81/3/3 85/3/3
f 87/3/3 85/3/3 86/3/3
f 90/5/3 89/5/3 88/5/3
f 91/5/3 89/5/3 90/5/3
f 92/5/4 93/5/4 94/5/4
f 94/5/4 93/5/4 95/5/4
f 96/3/4 97/3/4 98/3/4
f 98/3/4 97/3/4 99/3/4
f 96/3/4 98/3/4 100/3/4
f 98/4/4 99/4/4 100/4/4
f 99/3/4 97/3/4 101/3/4
f 100/4/4 99/4/4 101/4/4
f 96/3/4 100/3/4 102/3/4
f 100/3/4 101/3/4 102/3/4
f 101/3/4 97/3/4 103/3/4
f 102/3/4 101/3/4 103/3/4
f 106/3/5 105/3/5 104/3/5
f 107/3/5 105/3/5 106/3/5
f 110/5/5 109/5/5 108/5/5
f 111/5/5 109/5/5 110/5/5
f 112/5/6 113/5/6 114/5/6
f 114/5/6 113/5/6 115/5/6
f 116/3/6 117/3/6 118/3/6
f 118/3/6 117/3/6 119/3/6
