# MagicaVoxel @ Ephtracy

# group
g tseries_beast

# material
mtllib tseries_beast.mtl
usemtl palette

# normals
vn -1 0 0
vn 1 0 0
vn 0 0 1
vn 0 0 -1
vn 0 -1 0
vn 0 1 0

# texcoords
vt 0.443359 0.5
vt 0.841797 0.5
vt 0.955078 0.5
vt 0.958984 0.5
vt 0.962891 0.5
vt 0.994141 0.5

# verts
v -7.5 0 8
v -7.5 0 -8
v -7.5 13 8
v -7.5 13 -8
v 0.5 13 4
v 0.5 13 1
v 0.5 13 -1
v 0.5 13 -4
v 0.5 15 1
v 0.5 15 -1
v 0.5 21 4
v 0.5 21 -4
v 2.5 15 6
v 2.5 15 4
v 2.5 15 -4
v 2.5 15 -6
v 2.5 17 6
v 2.5 17 4
v 2.5 17 -4
v 2.5 17 -6
v 3.5 13 7
v 3.5 13 4
v 3.5 13 -4
v 3.5 13 -7
v 3.5 15 7
v 3.5 15 6
v 3.5 15 4
v 3.5 15 -4
v 3.5 15 -6
v 3.5 15 -7
v 4.5 8 3
v 4.5 8 1
v 4.5 8 -1
v 4.5 8 -3
v 4.5 10 3
v 4.5 10 1
v 4.5 10 -1
v 4.5 10 -3
v 6.5 1 1
v 6.5 1 -1
v 6.5 2 2
v 6.5 2 1
v 6.5 2 -1
v 6.5 2 -2
v 6.5 4 2
v 6.5 4 -2
v 2.5 16 3
v 2.5 16 1
v 2.5 16 -1
v 2.5 16 -3
v 2.5 19 3
v 2.5 19 1
v 2.5 19 -1
v 2.5 19 -3
v 3.5 6 7
v 3.5 6 2
v 3.5 6 -2
v 3.5 6 -7
v 3.5 7 2
v 3.5 7 -2
v 3.5 10 7
v 3.5 10 -7
v 3.5 13 2
v 3.5 13 1
v 3.5 13 -1
v 3.5 13 -2
v 3.5 15 4
v 3.5 15 2
v 3.5 15 1
v 3.5 15 -1
v 3.5 15 -2
v 3.5 15 -4
v 3.5 16 3
v 3.5 16 1
v 3.5 16 -1
v 3.5 16 -3
v 3.5 17 4
v 3.5 17 -4
v 3.5 19 3
v 3.5 19 1
v 3.5 19 -1
v 3.5 19 -3
v 3.5 20 3
v 3.5 20 -3
v 3.5 21 4
v 3.5 21 -4
v 4.5 15 6
v 4.5 15 4
v 4.5 15 -4
v 4.5 15 -6
v 4.5 17 6
v 4.5 17 4
v 4.5 17 -4
v 4.5 17 -6
v 5.5 0 8
v 5.5 0 -8
v 5.5 4 7
v 5.5 4 -7
v 5.5 6 7
v 5.5 6 -7
v 5.5 8 3
v 5.5 8 1
v 5.5 8 -1
v 5.5 8 -3
v 5.5 10 7
v 5.5 10 3
v 5.5 10 1
v 5.5 10 -1
v 5.5 10 -3
v 5.5 10 -7
v 5.5 11 6
v 5.5 11 3
v 5.5 11 -3
v 5.5 11 -6
v 5.5 13 8
v 5.5 13 7
v 5.5 13 2
v 5.5 13 -2
v 5.5 13 -7
v 5.5 13 -8
v 5.5 14 6
v 5.5 14 3
v 5.5 14 -3
v 5.5 14 -6
v 5.5 15 7
v 5.5 15 2
v 5.5 15 -2
v 5.5 15 -7
v 6.5 4 7
v 6.5 4 2
v 6.5 4 -2
v 6.5 4 -7
v 6.5 6 7
v 6.5 6 2
v 6.5 6 -2
v 6.5 6 -7
v 6.5 11 6
v 6.5 11 3
v 6.5 11 -3
v 6.5 11 -6
v 6.5 12 5
v 6.5 12 4
v 6.5 12 -4
v 6.5 12 -5
v 6.5 13 5
v 6.5 13 4
v 6.5 13 -4
v 6.5 13 -5
v 6.5 14 6
v 6.5 14 3
v 6.5 14 -3
v 6.5 14 -6
v 7.5 1 1
v 7.5 1 -1
v 7.5 2 2
v 7.5 2 1
v 7.5 2 -1
v 7.5 2 -2
v 7.5 7 2
v 7.5 7 -2
v -7.5 0 8
v -7.5 13 8
v 5.5 0 8
v 5.5 13 8
v 3.5 13 7
v 3.5 15 7
v 5.5 4 7
v 5.5 6 7
v 5.5 13 7
v 5.5 15 7
v 6.5 4 7
v 6.5 6 7
v 2.5 15 6
v 2.5 17 6
v 3.5 15 6
v 4.5 15 6
v 4.5 17 6
v 5.5 11 6
v 5.5 14 6
v 6.5 11 6
v 6.5 14 6
v 0.5 13 4
v 0.5 21 4
v 2.5 15 4
v 2.5 17 4
v 3.5 13 4
v 3.5 15 4
v 3.5 17 4
v 3.5 21 4
v 4.5 8 3
v 4.5 10 3
v 5.5 8 3
v 5.5 10 3
v 3.5 6 2
v 3.5 7 2
v 6.5 2 2
v 6.5 4 2
v 6.5 6 2
v 7.5 2 2
v 7.5 7 2
v 2.5 16 1
v 2.5 19 1
v 3.5 16 1
v 3.5 19 1
v 6.5 1 1
v 6.5 2 1
v 7.5 1 1
v 7.5 2 1
v 0.5 13 -1
v 0.5 15 -1
v 3.5 13 -1
v 3.5 15 -1
v 4.5 8 -1
v 4.5 10 -1
v 5.5 8 -1
v 5.5 10 -1
v 3.5 13 -2
v 3.5 15 -2
v 5.5 13 -2
v 5.5 15 -2
v 2.5 16 -3
v 2.5 19 -3
v 3.5 16 -3
v 3.5 19 -3
v 5.5 11 -3
v 5.5 14 -3
v 6.5 11 -3
v 6.5 14 -3
v 3.5 15 -4
v 3.5 17 -4
v 4.5 15 -4
v 4.5 17 -4
v 3.5 6 -7
v 3.5 10 -7
v 5.5 6 -7
v 5.5 10 -7
v 3.5 6 7
v 3.5 10 7
v 5.5 6 7
v 5.5 10 7
v 3.5 15 4
v 3.5 17 4
v 4.5 15 4
v 4.5 17 4
v 2.5 16 3
v 2.5 19 3
v 3.5 16 3
v 3.5 19 3
v 5.5 11 3
v 5.5 14 3
v 6.5 11 3
v 6.5 14 3
v 3.5 13 2
v 3.5 15 2
v 5.5 13 2
v 5.5 15 2
v 0.5 13 1
v 0.5 15 1
v 3.5 13 1
v 3.5 15 1
v 4.5 8 1
v 4.5 10 1
v 5.5 8 1
v 5.5 10 1
v 2.5 16 -1
v 2.5 19 -1
v 3.5 16 -1
v 3.5 19 -1
v 6.5 1 -1
v 6.5 2 -1
v 7.5 1 -1
v 7.5 2 -1
v 3.5 6 -2
v 3.5 7 -2
v 6.5 2 -2
v 6.5 4 -2
v 6.5 6 -2
v 7.5 2 -2
v 7.5 7 -2
v 4.5 8 -3
v 4.5 10 -3
v 5.5 8 -3
v 5.5 10 -3
v 0.5 13 -4
v 0.5 21 -4
v 2.5 15 -4
v 2.5 17 -4
v 3.5 13 -4
v 3.5 15 -4
v 3.5 17 -4
v 3.5 21 -4
v 2.5 15 -6
v 2.5 17 -6
v 3.5 15 -6
v 4.5 15 -6
v 4.5 17 -6
v 5.5 11 -6
v 5.5 14 -6
v 6.5 11 -6
v 6.5 14 -6
v 3.5 13 -7
v 3.5 15 -7
v 5.5 4 -7
v 5.5 6 -7
v 5.5 13 -7
v 5.5 15 -7
v 6.5 4 -7
v 6.5 6 -7
v -7.5 0 -8
v -7.5 13 -8
v 5.5 0 -8
v 5.5 13 -8
v -7.5 0 8
v 5.5 0 8
v -7.5 0 -8
v 5.5 0 -8
v 6.5 1 1
v 7.5 1 1
v 6.5 1 -1
v 7.5 1 -1
v 6.5 2 2
v 7.5 2 2
v 6.5 2 1
v 7.5 2 1
v 6.5 2 -1
v 7.5 2 -1
v 6.5 2 -2
v 7.5 2 -2
v 5.5 4 7
v 6.5 4 7
v 6.5 4 2
v 6.5 4 -2
v 5.5 4 -7
v 6.5 4 -7
v 4.5 8 3
v 5.5 8 3
v 4.5 8 1
v 5.5 8 1
v 4.5 8 -1
v 5.5 8 -1
v 4.5 8 -3
v 5.5 8 -3
v 3.5 10 7
v 5.5 10 7
v 4.5 10 3
v 5.5 10 3
v 4.5 10 1
v 5.5 10 1
v 4.5 10 -1
v 5.5 10 -1
v 4.5 10 -3
v 5.5 10 -3
v 3.5 10 -7
v 5.5 10 -7
v 5.5 11 6
v 6.5 11 6
v 5.5 11 3
v 6.5 11 3
v 5.5 11 -3
v 6.5 11 -3
v 5.5 11 -6
v 6.5 11 -6
v 2.5 15 6
v 3.5 15 6
v 2.5 15 4
v 3.5 15 4
v 0.5 15 1
v 3.5 15 1
v 0.5 15 -1
v 3.5 15 -1
v 2.5 15 -4
v 3.5 15 -4
v 2.5 15 -6
v 3.5 15 -6
v 2.5 19 3
v 3.5 19 3
v 2.5 19 1
v 3.5 19 1
v 2.5 19 -1
v 3.5 19 -1
v 2.5 19 -3
v 3.5 19 -3
v 3.5 6 7
v 5.5 6 7
v 6.5 6 7
v 3.5 6 2
v 6.5 6 2
v 3.5 6 -2
v 6.5 6 -2
v 3.5 6 -7
v 5.5 6 -7
v 6.5 6 -7
v 3.5 7 2
v 7.5 7 2
v 3.5 7 -2
v 7.5 7 -2
v -7.5 13 8
v 5.5 13 8
v 3.5 13 7
v 5.5 13 7
v 0.5 13 4
v 3.5 13 4
v 3.5 13 2
v 5.5 13 2
v 0.5 13 1
v 3.5 13 1
v 0.5 13 -1
v 3.5 13 -1
v 3.5 13 -2
v 5.5 13 -2
v 0.5 13 -4
v 3.5 13 -4
v 3.5 13 -7
v 5.5 13 -7
v -7.5 13 -8
v 5.5 13 -8
v 5.5 14 6
v 6.5 14 6
v 5.5 14 3
v 6.5 14 3
v 5.5 14 -3
v 6.5 14 -3
v 5.5 14 -6
v 6.5 14 -6
v 3.5 15 7
v 5.5 15 7
v 3.5 15 6
v 4.5 15 6
v 3.5 15 4
v 4.5 15 4
v 3.5 15 2
v 5.5 15 2
v 3.5 15 -2
v 5.5 15 -2
v 3.5 15 -4
v 4.5 15 -4
v 3.5 15 -6
v 4.5 15 -6
v 3.5 15 -7
v 5.5 15 -7
v 2.5 16 3
v 3.5 16 3
v 2.5 16 1
v 3.5 16 1
v 2.5 16 -1
v 3.5 16 -1
v 2.5 16 -3
v 3.5 16 -3
v 2.5 17 6
v 4.5 17 6
v 2.5 17 4
v 3.5 17 4
v 4.5 17 4
v 2.5 17 -4
v 3.5 17 -4
v 4.5 17 -4
v 2.5 17 -6
v 4.5 17 -6
v 0.5 21 4
v 3.5 21 4
v 0.5 21 -4
v 3.5 21 -4

# faces
f 3/1/1 2/1/1 1/1/1
f 4/1/1 2/1/1 3/1/1
f 9/6/1 6/6/1 5/6/1
f 10/6/1 8/6/1 7/6/1
f 11/6/1 9/6/1 5/6/1
f 11/6/1 10/6/1 9/6/1
f 12/6/1 8/6/1 10/6/1
f 12/6/1 10/6/1 11/6/1
f 17/6/1 14/6/1 13/6/1
f 18/6/1 14/6/1 17/6/1
f 19/6/1 16/6/1 15/6/1
f 20/6/1 16/6/1 19/6/1
f 25/1/1 22/1/1 21/1/1
f 26/1/1 22/1/1 25/1/1
f 27/1/1 22/1/1 26/1/1
f 28/1/1 24/1/1 23/1/1
f 29/1/1 24/1/1 28/1/1
f 30/1/1 24/1/1 29/1/1
f 35/4/1 32/4/1 31/4/1
f 36/4/1 32/4/1 35/4/1
f 37/4/1 34/4/1 33/4/1
f 38/4/1 34/4/1 37/4/1
f 42/2/1 40/2/1 39/2/1
f 43/2/1 40/2/1 42/2/1
f 45/2/1 42/2/1 41/2/1
f 45/2/1 44/2/1 43/2/1
f 45/2/1 43/2/1 42/2/1
f 46/2/1 44/2/1 45/2/1
f 47/2/2 48/2/2 51/2/2
f 51/2/2 48/2/2 52/2/2
f 49/2/2 50/2/2 53/2/2
f 53/2/2 50/2/2 54/2/2
f 55/6/2 56/6/2 59/6/2
f 57/6/2 58/6/2 60/6/2
f 55/6/2 59/6/2 61/6/2
f 59/6/2 60/6/2 61/6/2
f 60/6/2 58/6/2 62/6/2
f 61/6/2 60/6/2 62/6/2
f 63/6/2 64/6/2 68/6/2
f 68/6/2 64/6/2 69/6/2
f 65/6/2 66/6/2 70/6/2
f 70/6/2 66/6/2 71/6/2
f 68/6/2 69/6/2 73/6/2
f 71/6/2 72/6/2 73/6/2
f 70/6/2 71/6/2 73/6/2
f 69/6/2 70/6/2 73/6/2
f 67/6/2 68/6/2 73/6/2
f 73/6/2 72/6/2 74/6/2
f 74/6/2 72/6/2 75/6/2
f 75/6/2 72/6/2 76/6/2
f 67/6/2 73/6/2 77/6/2
f 76/6/2 72/6/2 78/6/2
f 77/6/2 73/6/2 79/6/2
f 74/5/2 75/5/2 80/5/2
f 80/5/2 75/5/2 81/5/2
f 76/6/2 78/6/2 82/6/2
f 77/6/2 79/6/2 83/6/2
f 81/5/2 82/5/2 83/5/2
f 80/5/2 81/5/2 83/5/2
f 79/5/2 80/5/2 83/5/2
f 82/6/2 78/6/2 84/6/2
f 83/5/2 82/5/2 84/5/2
f 77/6/2 83/6/2 85/6/2
f 83/6/2 84/6/2 85/6/2
f 84/6/2 78/6/2 86/6/2
f 85/6/2 84/6/2 86/6/2
f 87/6/2 88/6/2 91/6/2
f 91/6/2 88/6/2 92/6/2
f 89/6/2 90/6/2 93/6/2
f 93/6/2 90/6/2 94/6/2
f 95/1/2 96/1/2 97/1/2
f 97/1/2 96/1/2 98/1/2
f 95/1/2 97/1/2 99/1/2
f 98/1/2 96/1/2 100/1/2
f 95/1/2 99/1/2 105/1/2
f 101/4/2 102/4/2 106/4/2
f 106/4/2 102/4/2 107/4/2
f 103/4/2 104/4/2 108/4/2
f 108/4/2 104/4/2 109/4/2
f 100/1/2 96/1/2 110/1/2
f 106/1/2 107/1/2 111/1/2
f 109/1/2 110/1/2 111/1/2
f 108/1/2 109/1/2 111/1/2
f 105/1/2 106/1/2 111/1/2
f 107/1/2 108/1/2 111/1/2
f 111/1/2 110/1/2 112/1/2
f 112/1/2 110/1/2 113/1/2
f 113/1/2 110/1/2 114/1/2
f 95/1/2 105/1/2 115/1/2
f 105/1/2 111/1/2 115/1/2
f 115/1/2 111/1/2 116/1/2
f 112/1/2 113/1/2 117/1/2
f 117/1/2 113/1/2 118/1/2
f 110/1/2 96/1/2 119/1/2
f 114/1/2 110/1/2 119/1/2
f 119/1/2 96/1/2 120/1/2
f 116/1/2 111/1/2 121/1/2
f 112/1/2 117/1/2 122/1/2
f 118/1/2 113/1/2 123/1/2
f 114/1/2 119/1/2 124/1/2
f 121/1/2 122/1/2 125/1/2
f 116/1/2 121/1/2 125/1/2
f 122/1/2 117/1/2 126/1/2
f 125/1/2 122/1/2 126/1/2
f 123/1/2 124/1/2 127/1/2
f 118/1/2 123/1/2 127/1/2
f 124/1/2 119/1/2 128/1/2
f 127/1/2 124/1/2 128/1/2
f 129/1/2 130/1/2 133/1/2
f 133/1/2 130/1/2 134/1/2
f 131/1/2 132/1/2 135/1/2
f 135/1/2 132/1/2 136/1/2
f 137/4/2 138/4/2 141/4/2
f 141/4/2 138/4/2 142/4/2
f 139/4/2 140/4/2 143/4/2
f 143/4/2 140/4/2 144/4/2
f 137/4/2 141/4/2 145/4/2
f 141/3/2 142/3/2 145/3/2
f 142/4/2 138/4/2 146/4/2
f 145/3/2 142/3/2 146/3/2
f 143/3/2 144/3/2 147/3/2
f 139/4/2 143/4/2 147/4/2
f 144/4/2 140/4/2 148/4/2
f 147/3/2 144/3/2 148/3/2
f 137/4/2 145/4/2 149/4/2
f 145/4/2 146/4/2 149/4/2
f 146/4/2 138/4/2 150/4/2
f 149/4/2 146/4/2 150/4/2
f 139/4/2 147/4/2 151/4/2
f 147/4/2 148/4/2 151/4/2
f 148/4/2 140/4/2 152/4/2
f 151/4/2 148/4/2 152/4/2
f 153/2/2 154/2/2 156/2/2
f 156/2/2 154/2/2 157/2/2
f 155/2/2 156/2/2 159/2/2
f 157/2/2 158/2/2 159/2/2
f 156/2/2 157/2/2 159/2/2
f 159/2/2 158/2/2 160/2/2
f 163/1/3 162/1/3 161/1/3
f 164/1/3 162/1/3 163/1/3
f 169/1/3 166/1/3 165/1/3
f 170/1/3 166/1/3 169/1/3
f 171/1/3 168/1/3 167/1/3
f 172/1/3 168/1/3 171/1/3
f 175/6/3 174/6/3 173/6/3
f 176/6/3 174/6/3 175/6/3
f 177/6/3 174/6/3 176/6/3
f 180/4/3 179/4/3 178/4/3
f 181/4/3 179/4/3 180/4/3
f 184/6/3 183/6/3 182/6/3
f 185/6/3 183/6/3 184/6/3
f 186/6/3 184/6/3 182/6/3
f 187/6/3 184/6/3 186/6/3
f 188/6/3 183/6/3 185/6/3
f 189/6/3 183/6/3 188/6/3
f 192/4/3 191/4/3 190/4/3
f 193/4/3 191/4/3 192/4/3
f 198/2/3 195/2/3 194/2/3
f 199/2/3 197/2/3 196/2/3
f 199/2/3 198/2/3 197/2/3
f 200/2/3 195/2/3 198/2/3
f 200/2/3 198/2/3 199/2/3
f 203/5/3 202/5/3 201/5/3
f 204/5/3 202/5/3 203/5/3
f 207/2/3 206/2/3 205/2/3
f 208/2/3 206/2/3 207/2/3
f 211/6/3 210/6/3 209/6/3
f 212/6/3 210/6/3 211/6/3
f 215/4/3 214/4/3 213/4/3
f 216/4/3 214/4/3 215/4/3
f 219/1/3 218/1/3 217/1/3
f 220/1/3 218/1/3 219/1/3
f 223/6/3 222/6/3 221/6/3
f 224/6/3 222/6/3 223/6/3
f 227/4/3 226/4/3 225/4/3
f 228/4/3 226/4/3 227/4/3
f 231/6/3 230/6/3 229/6/3
f 232/6/3 230/6/3 231/6/3
f 235/1/3 234/1/3 233/1/3
f 236/1/3 234/1/3 235/1/3
f 237/1/4 238/1/4 239/1/4
f 239/1/4 238/1/4 240/1/4
f 241/6/4 242/6/4 243/6/4
f 243/6/4 242/6/4 244/6/4
f 245/6/4 246/6/4 247/6/4
f 247/6/4 246/6/4 248/6/4
f 249/4/4 250/4/4 251/4/4
f 251/4/4 250/4/4 252/4/4
f 253/1/4 254/1/4 255/1/4
f 255/1/4 254/1/4 256/1/4
f 257/6/4 258/6/4 259/6/4
f 259/6/4 258/6/4 260/6/4
f 261/4/4 262/4/4 263/4/4
f 263/4/4 262/4/4 264/4/4
f 265/5/4 266/5/4 267/5/4
f 267/5/4 266/5/4 268/5/4
f 269/2/4 270/2/4 271/2/4
f 271/2/4 270/2/4 272/2/4
f 273/2/4 274/2/4 277/2/4
f 275/2/4 276/2/4 278/2/4
f 276/2/4 277/2/4 278/2/4
f 277/2/4 274/2/4 279/2/4
f 278/2/4 277/2/4 279/2/4
f 280/4/4 281/4/4 282/4/4
f 282/4/4 281/4/4 283/4/4
f 284/6/4 285/6/4 286/6/4
f 286/6/4 285/6/4 287/6/4
f 284/6/4 286/6/4 288/6/4
f 288/6/4 286/6/4 289/6/4
f 287/6/4 285/6/4 290/6/4
f 290/6/4 285/6/4 291/6/4
f 292/6/4 293/6/4 294/6/4
f 294/6/4 293/6/4 295/6/4
f 295/6/4 293/6/4 296/6/4
f 297/4/4 298/4/4 299/4/4
f 299/4/4 298/4/4 300/4/4
f 301/1/4 302/1/4 305/1/4
f 305/1/4 302/1/4 306/1/4
f 303/1/4 304/1/4 307/1/4
f 307/1/4 304/1/4 308/1/4
f 309/1/4 310/1/4 311/1/4
f 311/1/4 310/1/4 312/1/4
f 315/1/5 314/1/5 313/1/5
f 316/1/5 314/1/5 315/1/5
f 319/2/5 318/2/5 317/2/5
f 320/2/5 318/2/5 319/2/5
f 323/2/5 322/2/5 321/2/5
f 324/2/5 322/2/5 323/2/5
f 327/2/5 326/2/5 325/2/5
f 328/2/5 326/2/5 327/2/5
f 331/1/5 330/1/5 329/1/5
f 332/1/5 331/1/5 329/1/5
f 333/1/5 332/1/5 329/1/5
f 334/1/5 332/1/5 333/1/5
f 337/4/5 336/4/5 335/4/5
f 338/4/5 336/4/5 337/4/5
f 341/4/5 340/4/5 339/4/5
f 342/4/5 340/4/5 341/4/5
f 345/1/5 344/1/5 343/1/5
f 346/1/5 344/1/5 345/1/5
f 347/1/5 345/1/5 343/1/5
f 349/1/5 347/1/5 343/1/5
f 349/1/5 348/1/5 347/1/5
f 350/1/5 348/1/5 349/1/5
f 351/1/5 349/1/5 343/1/5
f 353/1/5 351/1/5 343/1/5
f 353/1/5 352/1/5 351/1/5
f 354/1/5 352/1/5 353/1/5
f 357/4/5 356/4/5 355/4/5
f 358/4/5 356/4/5 357/4/5
f 361/4/5 360/4/5 359/4/5
f 362/4/5 360/4/5 361/4/5
f 365/6/5 364/6/5 363/6/5
f 366/6/5 364/6/5 365/6/5
f 369/6/5 368/6/5 367/6/5
f 370/6/5 368/6/5 369/6/5
f 373/6/5 372/6/5 371/6/5
f 374/6/5 372/6/5 373/6/5
f 377/5/5 376/5/5 375/5/5
f 378/5/5 376/5/5 377/5/5
f 381/5/5 380/5/5 379/5/5
f 382/5/5 380/5/5 381/5/5
f 383/1/6 384/1/6 386/1/6
f 384/1/6 385/1/6 386/1/6
f 386/1/6 385/1/6 387/1/6
f 388/1/6 389/1/6 390/1/6
f 390/1/6 389/1/6 391/1/6
f 391/1/6 389/1/6 392/1/6
f 393/2/6 394/2/6 395/2/6
f 395/2/6 394/2/6 396/2/6
f 397/1/6 398/1/6 399/1/6
f 399/1/6 398/1/6 400/1/6
f 397/1/6 399/1/6 401/1/6
f 401/1/6 399/1/6 402/1/6
f 397/1/6 401/1/6 405/1/6
f 403/1/6 404/1/6 406/1/6
f 397/1/6 405/1/6 407/1/6
f 405/1/6 406/1/6 407/1/6
f 406/1/6 404/1/6 408/1/6
f 407/1/6 406/1/6 408/1/6
f 408/1/6 404/1/6 409/1/6
f 409/1/6 404/1/6 410/1/6
f 397/1/6 407/1/6 411/1/6
f 411/1/6 412/1/6 413/1/6
f 397/1/6 411/1/6 415/1/6
f 413/1/6 414/1/6 415/1/6
f 411/1/6 413/1/6 415/1/6
f 415/1/6 414/1/6 416/1/6
f 417/4/6 418/4/6 419/4/6
f 419/4/6 418/4/6 420/4/6
f 421/4/6 422/4/6 423/4/6
f 423/4/6 422/4/6 424/4/6
f 425/1/6 426/1/6 427/1/6
f 427/1/6 426/1/6 428/1/6
f 428/1/6 426/1/6 430/1/6
f 429/1/6 430/1/6 431/1/6
f 430/1/6 426/1/6 432/1/6
f 431/1/6 430/1/6 432/1/6
f 433/1/6 434/1/6 435/1/6
f 435/1/6 434/1/6 436/1/6
f 436/1/6 434/1/6 438/1/6
f 437/1/6 438/1/6 439/1/6
f 438/1/6 434/1/6 440/1/6
f 439/1/6 438/1/6 440/1/6
f 441/6/6 442/6/6 443/6/6
f 443/6/6 442/6/6 444/6/6
f 445/6/6 446/6/6 447/6/6
f 447/6/6 446/6/6 448/6/6
f 449/6/6 450/6/6 451/6/6
f 451/6/6 450/6/6 452/6/6
f 452/6/6 450/6/6 453/6/6
f 454/6/6 455/6/6 457/6/6
f 455/6/6 456/6/6 457/6/6
f 457/6/6 456/6/6 458/6/6
f 459/6/6 460/6/6 461/6/6
f 461/6/6 460/6/6 462/6/6
